<svg xmlns="http://www.w3.org/2000/svg" width="126.235" height="126.856" viewBox="0 0 126.235 126.856">
  <g id="グループ_2551" data-name="グループ 2551" transform="translate(0.428 0.428)">
    <path id="パス_5328" data-name="パス 5328" d="M109.441,138.83c0-5.457,4.01-10.279,8.141-13.217a33.974,33.974,0,1,0-39.367.067c4.13,2.938,8.142,7.765,8.142,13.217" transform="translate(-35.162 -35.218)" fill="#f4c600" stroke="#151515" stroke-miterlimit="10" stroke-width="4"/>
    <path id="パス_5327" data-name="パス 5327" d="M132.35,192.307H118.5a4.617,4.617,0,0,1-4.617-4.617V142.757l11.541-19.443,11.542,19.443V187.69A4.617,4.617,0,0,1,132.35,192.307Z" transform="translate(-62.689 -67.879)" fill="#f8f4e4" stroke="#151515" stroke-miterlimit="10" stroke-width="4"/>
    <line id="線_31" data-name="線 31" y1="37.7" transform="translate(58.888 76.942)" fill="none" stroke="#151515" stroke-miterlimit="10" stroke-width="4"/>
    <line id="線_32" data-name="線 32" y1="37.7" transform="translate(66.585 76.942)" fill="none" stroke="#151515" stroke-miterlimit="10" stroke-width="4"/>
    <path id="パス_5325" data-name="パス 5325" d="M168.059,209.486l-.084.034" transform="translate(-92.463 -115.314)" fill="none" stroke="#151515" stroke-miterlimit="10" stroke-width="4"/>
    <path id="パス_5326" data-name="パス 5326" d="M113.881,171.158h23.085" transform="translate(-62.687 -94.216)" fill="none" stroke="#151515" stroke-miterlimit="10" stroke-width="4"/>
    <line id="線_33" data-name="線 33" x2="12.973" transform="translate(56.25 67.201)" fill="none" stroke="#151515" stroke-miterlimit="10" stroke-width="4"/>
    <line id="線_34" data-name="線 34" x2="23.083" transform="translate(51.195 114.642)" fill="none" stroke="#151515" stroke-miterlimit="10" stroke-width="4"/>
    <line id="線_35" data-name="線 35" y1="16.697" transform="translate(62.693 1.572)" fill="none" stroke="#151515" stroke-linecap="round" stroke-miterlimit="10" stroke-width="4"/>
    <line id="線_36" data-name="線 36" x1="2.98" y1="7.194" transform="translate(42.71 14.453)" fill="none" stroke="#151515" stroke-linecap="round" stroke-miterlimit="10" stroke-width="4"/>
    <line id="線_37" data-name="線 37" x1="2.98" y2="7.194" transform="translate(79.688 14.453)" fill="none" stroke="#151515" stroke-linecap="round" stroke-miterlimit="10" stroke-width="4"/>
    <line id="線_38" data-name="線 38" x1="11.811" y1="11.811" transform="translate(19.474 19.473)" fill="none" stroke="#151515" stroke-linecap="round" stroke-miterlimit="10" stroke-width="4"/>
    <line id="線_39" data-name="線 39" x1="7.173" y1="2.971" transform="translate(14.454 42.706)" fill="none" stroke="#151515" stroke-linecap="round" stroke-miterlimit="10" stroke-width="4"/>
    <line id="線_40" data-name="線 40" x1="16.651" transform="translate(1.572 62.689)" fill="none" stroke="#151515" stroke-linecap="round" stroke-miterlimit="10" stroke-width="4"/>
    <line id="線_41" data-name="線 41" x1="7.152" y2="2.959" transform="translate(14.449 79.709)" fill="none" stroke="#151515" stroke-linecap="round" stroke-miterlimit="10" stroke-width="4"/>
    <line id="線_42" data-name="線 42" x1="11.757" y2="11.757" transform="translate(19.469 94.148)" fill="none" stroke="#151515" stroke-linecap="round" stroke-miterlimit="10" stroke-width="4"/>
    <line id="線_43" data-name="線 43" x1="11.757" y1="11.757" transform="translate(94.148 94.152)" fill="none" stroke="#151515" stroke-linecap="round" stroke-miterlimit="10" stroke-width="4"/>
    <line id="線_44" data-name="線 44" x1="7.148" y1="2.959" transform="translate(103.777 79.713)" fill="none" stroke="#151515" stroke-linecap="round" stroke-miterlimit="10" stroke-width="4"/>
    <line id="線_45" data-name="線 45" x1="16.646" transform="translate(107.16 62.693)" fill="none" stroke="#151515" stroke-linecap="round" stroke-miterlimit="10" stroke-width="4"/>
    <line id="線_46" data-name="線 46" x1="7.173" y2="2.967" transform="translate(103.755 42.714)" fill="none" stroke="#151515" stroke-linecap="round" stroke-miterlimit="10" stroke-width="4"/>
    <line id="線_47" data-name="線 47" x1="11.811" y2="11.811" transform="translate(94.098 19.478)" fill="none" stroke="#151515" stroke-linecap="round" stroke-miterlimit="10" stroke-width="4"/>
    <line id="線_48" data-name="線 48" x2="4.276" transform="translate(60.55 45.57)" fill="none" stroke="#151515" stroke-miterlimit="10" stroke-width="4"/>
    <line id="線_49" data-name="線 49" x2="4.276" transform="translate(68.892 45.57)" fill="none" stroke="#151515" stroke-miterlimit="10" stroke-width="4"/>
    <line id="線_50" data-name="線 50" x1="4.276" transform="translate(52.208 45.57)" fill="none" stroke="#151515" stroke-miterlimit="10" stroke-width="4"/>
  </g>
</svg>
