<svg xmlns="http://www.w3.org/2000/svg" width="125.999" height="104.77" viewBox="0 0 125.999 104.77">
  <g id="グループ_2555" data-name="グループ 2555" transform="translate(-0.001 -0.115)">
    <path id="パス_5324" data-name="パス 5324" d="M110.547,18.011m4.293-10.428a10.454,10.454,0,0,1,7.427-2.433,10.453,10.453,0,0,1-3.912,6.768,10.448,10.448,0,0,1-7.426,2.433,10.452,10.452,0,0,1,3.911-6.768M99.263,27.543a11.094,11.094,0,0,1-7.273-4.221,11.62,11.62,0,0,1,15.488,2.43,11.091,11.091,0,0,1-8.216,1.791" transform="translate(-0.005 -1.31)" fill="#2b9267"/>
    <path id="パス_5323" data-name="パス 5323" d="M1181.76,525.137v-1.972a1.846,1.846,0,0,0-3.691,0v1.972a1.846,1.846,0,0,0,3.691,0" transform="translate(-1083.396 -479.424)"/>
    <path id="パス_5330" data-name="パス 5330" d="M110.547,18.011c.388.039.778.064,1.173.064a14.435,14.435,0,0,0,8.962-3.292,13.732,13.732,0,0,0,5.3-11.282,1.847,1.847,0,0,0-1.335-1.646,13.74,13.74,0,0,0-12.13,2.86,14.984,14.984,0,0,0-3.648,4.34c-.313-1.975-.573-3.9-.767-5.74a1.846,1.846,0,1,0-3.671.385A155.147,155.147,0,0,0,107.3,20.5a15.572,15.572,0,0,0-6.518-2.613,14.375,14.375,0,0,0-12.485,3.785,1.848,1.848,0,0,0-.329,2.094,14.382,14.382,0,0,0,10.728,7.426,15.9,15.9,0,0,0,2.456.192,14.567,14.567,0,0,0,8.165-2.415c1.515,5.956,3.151,11.655,4.614,16.483l-6.18-3.708a9.418,9.418,0,0,0-8.921-6.427A21.528,21.528,0,0,0,84.461,40.76L29.447,14.133A1.845,1.845,0,0,0,26.8,15.81a38.172,38.172,0,0,0,3.057,13.665L2.475,19.645A1.846,1.846,0,0,0,.081,21.9a49.329,49.329,0,0,0,9.5,16.716,41.117,41.117,0,0,0,3.554,3.611c1.754,5.181,6.083,14.462,15.288,18.509a24.164,24.164,0,0,0,7.781,1.937c1.208,1.85,5.253,7.237,12.02,8.372a15.169,15.169,0,0,0,2.54.212c4.955,0,10.132-2.373,15.427-7.079a1.845,1.845,0,1,0-2.452-2.758c-5.318,4.727-10.322,6.742-14.873,5.991a14.131,14.131,0,0,1-8-4.735,45.824,45.824,0,0,0,14.986-4.108,1.845,1.845,0,1,0-1.5-3.373C44.666,59.5,36.442,60.232,29.911,57.36c-5.31-2.334-8.754-6.76-10.918-10.807,6.5,3.867,15.221,6.264,26.571,4.26a1.846,1.846,0,0,0-.641-3.635c-13.178,2.326-24.1-1.337-32.474-10.887A46.8,46.8,0,0,1,5.015,24.48l69.6,24.986a7.794,7.794,0,0,0,8.112-1.817l3.37-3.37A17.882,17.882,0,0,1,98.83,39.007a5.718,5.718,0,0,1,5.711,5.711v.123a7.173,7.173,0,0,1-4.532,6.692,10.894,10.894,0,0,0-6.412,7.1C89.366,72.982,82.6,82.211,73.5,86.058c-4.007,1.693-14.946,4.781-29.939-3.108a5.781,5.781,0,0,0-5.705.214L22.516,92.636A21.168,21.168,0,0,1,21.463,87.2a2.1,2.1,0,0,1,1.225-2.079l19.373-8.806a1.846,1.846,0,0,0-1.526-3.361L21.161,81.762a5.832,5.832,0,0,0-3.38,5.7,21.857,21.857,0,0,0,4.094,11.665c3.584,4.691,9.125,7.068,16.475,7.068q.258,0,.518,0a5.8,5.8,0,0,0,5.115-3.211l6.578-13.155a41.947,41.947,0,0,0,12.354,1.988,30.668,30.668,0,0,0,12.023-2.354c10.172-4.3,17.641-14.32,22.2-29.785a7.23,7.23,0,0,1,4.248-4.714,10.926,10.926,0,0,0,3.436-2.188l10.819-1.8c1.552,4.882,2.667,8.089,2.811,8.5a1.846,1.846,0,0,0,3.485-1.219,389.154,389.154,0,0,1-11.39-40.238m4.293-10.428a10.454,10.454,0,0,1,7.427-2.433,10.453,10.453,0,0,1-3.912,6.768,10.448,10.448,0,0,1-7.426,2.433,10.452,10.452,0,0,1,3.911-6.768M99.263,27.543a11.094,11.094,0,0,1-7.273-4.221,11.62,11.62,0,0,1,15.488,2.43,11.091,11.091,0,0,1-8.216,1.791m-23.4,18.448L35.038,31.334a31.122,31.122,0,0,1-4.282-12.467L81.655,43.5l-1.534,1.534a4.087,4.087,0,0,1-4.254.954M24.133,95.975,39.8,86.3a2.075,2.075,0,0,1,2.047-.087l.018.009L29.506,100.665a13.239,13.239,0,0,1-5.373-4.69m16.549,5.354a2.142,2.142,0,0,1-1.869,1.17,23.8,23.8,0,0,1-5.556-.54L45.31,87.874c.549.237,1.129.478,1.739.718Zm66.9-52.76a10.949,10.949,0,0,0,.555-2.288L111,48Z" transform="translate(-0.005 -1.31)"/>
  </g>
</svg>
