<svg xmlns="http://www.w3.org/2000/svg" width="127.664" height="73.525" viewBox="0 0 127.664 73.525">
  <path xmlns="http://www.w3.org/2000/svg" id="パス_5331" data-name="パス 5331" d="M153.837,160.614l-3.014,1.753-9.2-5.034-8.556,2.12-4.688,10.071,1.638,8.685,10.258,8.815,11.995,5.422,2.774,4.48,3.306-4.48L173.57,184.1l6.173-6.9,1.105-9.678-5.4-8.077-6.79-2.12-5.706,2.12-4.606,2.914Z" transform="translate(-90.376 -130.333)" fill="#f706a3"/>
  <path id="パス_5329" data-name="パス 5329" d="M125.876,61.7l-6.941-13.326a205.484,205.484,0,0,1-1.64-25.108c-.148-8.365-1.9-13.77-4.925-15.219a3.489,3.489,0,0,0-3.757.418,3.462,3.462,0,0,0-.958,1.42c-.878-4.085-2.333-6.942-4.358-8.544A5.765,5.765,0,0,0,98.112.205,3.713,3.713,0,0,0,95.65,2.328c-.814,1.853-.387,4.42,1.267,7.629a22.644,22.644,0,0,1,2.414,9.115c-4.068-11.5-11.8-15.684-16.47-17.188-4.4-1.417-6.8-.042-7.58,1.714-.933,2.108.189,5.431,4.138,7.7,2.822,1.623,5.521,4.81,7.575,7.708-5.4-3.771-10.532-3.975-15.934-.7q-.706.429-1.38.919c-3.388,2.469-5.437,4.189-6.262,5.258-.16.206-.289.4-.419.6-.129-.2-.259-.392-.418-.6-.826-1.069-2.874-2.789-6.261-5.257q-.674-.491-1.38-.92c-5.4-3.282-10.538-3.077-15.937.7,2.053-2.9,4.751-6.085,7.578-7.71,3.949-2.273,5.071-5.6,4.138-7.7C49.939,1.84,47.539.465,43.139,1.884c-4.671,1.5-12.4,5.684-16.469,17.188a22.642,22.642,0,0,1,2.414-9.115c1.654-3.21,2.081-5.776,1.267-7.629A3.708,3.708,0,0,0,27.888.206,5.739,5.739,0,0,0,22.7,1.34c-2.025,1.6-3.48,4.46-4.358,8.544a3.469,3.469,0,0,0-.958-1.42,3.488,3.488,0,0,0-3.756-.418C10.6,9.493,8.854,14.9,8.707,23.264a205.837,205.837,0,0,1-1.64,25.108L.124,61.7a1.1,1.1,0,0,0,1.942,1.014L9.093,49.226A1.1,1.1,0,0,0,9.2,48.9c.057-.346,1.4-8.675,1.7-25.594.15-8.567,2-12.478,3.68-13.281a1.312,1.312,0,0,1,1.466.17c.731.569,1.2,3.948,1.361,8q-.117,3.081.01,6.668a1.094,1.094,0,0,0,1.093,1.056h0A1.094,1.094,0,0,0,19.6,24.86c.052-1.362.115-4,0-6.794.43-10.169,2.866-13.751,4.457-15.01a3.535,3.535,0,0,1,3.246-.739,1.518,1.518,0,0,1,1.037.891c.3.685.544,2.344-1.208,5.746A25.657,25.657,0,0,0,25,25.866a1.045,1.045,0,0,0,1.1.816,1.1,1.1,0,0,0,1.038-.889C30.043,10.539,38.83,5.572,43.811,3.969c2.484-.8,4.412-.6,4.906.515.531,1.2-.53,3.367-3.228,4.918-6.464,3.719-11.945,14.2-12.174,14.639a1.094,1.094,0,0,0,1.718,1.3l2.349-2.188c5.817-5.419,10.882-6.335,16.424-2.973.417.253.827.526,1.225.818,3.952,2.879,5.346,4.214,5.819,4.827.858,1.112,1.211,2.1.991,2.772-.244.752-1.2,1.174-1.968,1.4-.648.182-2.037-.71-3.383-1.578C53.372,26.4,49.1,23.642,43.759,26.27c-3.521,1.731-6.184,5.345-7.308,9.916-1.154,4.694-.5,9.634,1.658,12.585,3.568,4.865,10.359,8.13,15.816,10.753a33.71,33.71,0,0,1,6.337,3.5A5.033,5.033,0,0,1,61.906,66.8c0,.134,0,.269,0,.4a8.581,8.581,0,0,1-.244,1.776c-3.833-.9-17.685-4.2-21.122-5.521-4.289-1.648-16.434,1.2-17.8,1.529a1.115,1.115,0,0,0-.414.2l-6.274,4.865a1.1,1.1,0,0,0,1.341,1.732l6.088-4.721c3.717-.879,13.244-2.72,16.279-1.559,4.121,1.581,21.653,5.669,22.4,5.842A1.084,1.084,0,0,0,63,71.169a1.072,1.072,0,0,0,.852.169c.744-.173,18.276-4.262,22.4-5.842,3.035-1.161,12.56.681,16.279,1.559l6.088,4.721a1.1,1.1,0,1,0,1.341-1.732l-6.274-4.865a1.111,1.111,0,0,0-.414-.2c-1.37-.329-13.517-3.177-17.8-1.529-3.436,1.32-17.289,4.619-21.122,5.521A8.616,8.616,0,0,1,64.1,67.2c0-.131,0-.265,0-.4a5.031,5.031,0,0,1,1.643-3.773,33.711,33.711,0,0,1,6.337-3.5c5.457-2.624,12.249-5.889,15.816-10.753C90.052,45.82,90.7,40.88,89.55,36.186,88.426,31.615,85.762,28,82.242,26.27c-5.339-2.626-9.613.134-12.732,2.15-1.345.868-2.739,1.76-3.382,1.578-.763-.222-1.724-.644-1.968-1.4-.22-.676.133-1.66.991-2.772.474-.613,1.867-1.947,5.821-4.828.4-.291.807-.563,1.224-.817,5.54-3.363,10.606-2.446,16.424,2.973l2.349,2.188a1.095,1.095,0,0,0,1.718-1.3c-.23-.444-5.71-10.92-12.174-14.639-2.7-1.552-3.759-3.719-3.228-4.918.493-1.115,2.417-1.32,4.906-.515,4.98,1.6,13.768,6.57,16.673,21.824a1.093,1.093,0,0,0,1.038.889,1.059,1.059,0,0,0,1.1-.816A25.656,25.656,0,0,0,98.863,8.955c-1.753-3.4-1.51-5.061-1.208-5.746a1.522,1.522,0,0,1,1.037-.892,3.541,3.541,0,0,1,3.246.74c1.591,1.258,4.028,4.84,4.458,15.008-.113,2.789-.048,5.434,0,6.8a1.094,1.094,0,0,0,1.094,1.054h0a1.094,1.094,0,0,0,1.093-1.056q.128-3.622.009-6.728c.176-4.209.683-7.41,1.362-7.939a1.313,1.313,0,0,1,1.467-.17c1.681.8,3.53,4.715,3.68,13.281.3,16.919,1.638,25.247,1.7,25.594a1.125,1.125,0,0,0,.109.329l7.025,13.487a1.1,1.1,0,1,0,1.942-1.014M65.515,32.1c1.609.468,3.265-.6,5.185-1.843,2.975-1.92,6.35-4.1,10.576-2.023,2.939,1.443,5.179,4.531,6.148,8.474.99,4.027.468,8.355-1.3,10.764-3.242,4.424-9.761,7.559-15,10.076-3.074,1.478-5.5,2.645-6.843,3.836A7,7,0,0,0,63,62.9a7,7,0,0,0-1.283-1.516c-1.342-1.191-3.769-2.358-6.843-3.836-5.237-2.517-11.754-5.652-15-10.076-1.766-2.41-2.288-6.738-1.3-10.764.969-3.943,3.209-7.031,6.148-8.476,4.229-2.071,7.6.1,10.576,2.025,1.919,1.24,3.577,2.311,5.185,1.843A5.831,5.831,0,0,0,63,30.734,5.836,5.836,0,0,0,65.515,32.1" transform="translate(0.832 0.769)" stroke="#151515" stroke-width="1.5"/>
</svg>
