<svg id="グループ_2368" data-name="グループ 2368" xmlns="http://www.w3.org/2000/svg" xmlns:xlink="http://www.w3.org/1999/xlink" width="70.399" height="50" viewBox="0 0 70.399 50">
  <defs>
    <clipPath id="clip-path">
      <rect id="長方形_1631" data-name="長方形 1631" width="70.399" height="50" fill="#fff" stroke="rgba(0,0,0,0)" stroke-miterlimit="10" stroke-width="1"/>
    </clipPath>
  </defs>
  <g id="グループ_2367" data-name="グループ 2367" clip-path="url(#clip-path)">
    <path id="パス_4987" data-name="パス 4987" d="M25.273,15.464a10.023,10.023,0,0,1,8.77,6.471c.709,1.876-.658,2.553-2.03,1.859-1.338-.6-1.626-.063-2.757-.444-1.435-.514-1.277-4.137-4.319-6.607-.772-.625-.489-1.331.336-1.279" transform="translate(-2.257 -1.425)" fill="#fff" stroke="rgba(0,0,0,0)" stroke-miterlimit="10" stroke-width="1"/>
    <path id="パス_4988" data-name="パス 4988" d="M8.018,17.187A10.024,10.024,0,0,1,3.445,7.295c.281-1.985,1.8-1.921,2.674-.653C7,7.81,7.514,7.479,8.323,8.359c1.009,1.141-.872,4.24.606,7.868.374.921-.212,1.4-.911.96" transform="translate(-0.307 -0.529)" fill="#fff" stroke="rgba(0,0,0,0)" stroke-miterlimit="10" stroke-width="1"/>
    <path id="パス_4989" data-name="パス 4989" d="M8.189,22.991A7.416,7.416,0,0,1,.4,19.692c-.97-1.53-.052-2.686,1.338-2.674,1.354-.045,2.045-.336,3.044.181,1.027.514,1.738,2.749,3.822,4.395.6.475.474,1.206-.418,1.4" transform="translate(0 -1.558)" fill="#fff" stroke="rgba(0,0,0,0)" stroke-miterlimit="10" stroke-width="1"/>
    <path id="パス_4990" data-name="パス 4990" d="M26.31,22.454a7.415,7.415,0,0,1,2.782,7.985c-.482,1.746-1.955,1.841-2.879.8-.943-.973-1.623-1.291-1.91-2.378-.309-1.1.872-3.133.692-5.784-.053-.763.576-1.158,1.315-.627" transform="translate(-2.235 -2.048)" fill="#fff" stroke="rgba(0,0,0,0)" stroke-miterlimit="10" stroke-width="1"/>
    <path id="パス_4991" data-name="パス 4991" d="M11.065,27.682a4.892,4.892,0,0,1-5.781,1.708A1.966,1.966,0,0,1,4.3,26.252c.791-1.082,1.718-1.794,2.946-1.561,1.107.208,2.345,1.053,3.565,1.354.633.172.876.7.253,1.638" transform="translate(-0.355 -2.272)" fill="#fff" stroke="rgba(0,0,0,0)" stroke-miterlimit="10" stroke-width="1"/>
    <path id="パス_4992" data-name="パス 4992" d="M22.436,27.864a4.888,4.888,0,0,1-1.177,5.91,1.963,1.963,0,0,1-3.234-.589c-.59-1.2-.792-2.355-.012-3.333.7-.882,2.021-1.586,2.853-2.526.449-.48,1.027-.451,1.569.538" transform="translate(-1.613 -2.491)" fill="#fff" stroke="rgba(0,0,0,0)" stroke-miterlimit="10" stroke-width="1"/>
    <path id="パス_4993" data-name="パス 4993" d="M15.907,32.021a2.573,2.573,0,1,1-1.471-3.328,2.574,2.574,0,0,1,1.471,3.328" transform="translate(-1.008 -2.629)" fill="#fff" stroke="rgba(0,0,0,0)" stroke-miterlimit="10" stroke-width="1"/>
    <path id="パス_4994" data-name="パス 4994" d="M26.654,7.3c.435-1.081-.916-1.4.527-2.425,1.589-1.037,1.743-2.765-.54-2.5a13.7,13.7,0,0,0-11.309,8.9c-.31.819-.062,1.21.911.168C19.584,7.86,25.86,9.22,26.654,7.3" transform="translate(-1.402 -0.217)" fill="#fff" stroke="rgba(0,0,0,0)" stroke-miterlimit="10" stroke-width="1"/>
    <path id="パス_4995" data-name="パス 4995" d="M20.666,11.733a12.4,12.4,0,0,1,13.179-.35c1.9,1.114.911,2.434-.852,2.457-1.649.091-1.037,1.088-2.061,1.542-1.74.751-4.555-3.274-9.724-2.745-1.107.113-1.175-.452-.542-.9" transform="translate(-1.868 -0.89)" fill="#fff" stroke="rgba(0,0,0,0)" stroke-miterlimit="10" stroke-width="1"/>
    <path id="パス_4996" data-name="パス 4996" d="M10.762,13.353A12.4,12.4,0,0,1,14.276.646c1.62-1.49,2.595-.161,2.1,1.533-.394,1.6.737,1.308.874,2.422.21,1.883-4.461,3.4-5.467,8.5-.215,1.091-.775.99-1.022.254" transform="translate(-0.947 0)" fill="#fff" stroke="rgba(0,0,0,0)" stroke-miterlimit="10" stroke-width="1"/>
    <path id="パス_4997" data-name="パス 4997" d="M9.106,53.67h-7V44.337c0-1.57-.224-1.5-1.724-1.69v-.378L4,41.87v9.7c0,1.207-.069,1.294,1.156,1.294H6.64c1.276,0,2.034-.207,2.034-1.691h.483Z" transform="translate(-0.035 -3.86)" fill="#fff" stroke="rgba(0,0,0,0)" stroke-miterlimit="10" stroke-width="1"/>
    <path id="パス_4998" data-name="パス 4998" d="M12.688,49.118c0,1.965.845,4.174,3.14,4.174A4.356,4.356,0,0,0,17.45,53v.758a6.909,6.909,0,0,1-2.432.467c-2.8,0-4.227-1.777-4.227-4.486,0-2.449,1.069-3.915,3.622-3.915,2.208,0,3.191,1.19,3.191,3.3Zm1.657-2.708a1.825,1.825,0,0,0-1.657,2.018H15.88c0-1-.362-2.018-1.535-2.018" transform="translate(-0.995 -4.224)" fill="#fff" stroke="rgba(0,0,0,0)" stroke-miterlimit="10" stroke-width="1"/>
    <path id="パス_4999" data-name="パス 4999" d="M21.325,44.1a1.079,1.079,0,0,1,.018-2.157,1.094,1.094,0,0,1,1.1,1.069,1.112,1.112,0,0,1-1.12,1.088" transform="translate(-1.867 -3.867)" fill="#fff" stroke="rgba(0,0,0,0)" stroke-miterlimit="10" stroke-width="1"/>
    <path id="パス_5000" data-name="パス 5000" d="M36.171,53.67V48.03H31.478v5.64h-1.9V44.337c0-1.5-.277-1.536-1.726-1.69v-.378l3.623-.4v5.348h4.693V42.061h1.9V53.67Z" transform="translate(-2.568 -3.86)" fill="#fff" stroke="rgba(0,0,0,0)" stroke-miterlimit="10" stroke-width="1"/>
    <path id="パス_5001" data-name="パス 5001" d="M45.105,54.034V53.017a2.613,2.613,0,0,1-2.227,1.207,2.2,2.2,0,0,1-2.309-1.984c0-2.224,2.845-2.6,4.536-2.655V48.7c0-.811.086-2.293-1.088-2.293-1.069,0-1.207.9-1.207,1.759H40.758c.294-1.81,1.517-2.347,3.244-2.347,2.173,0,2.828.914,2.828,2.967v5.244Zm0-3.829c-1.121.034-2.639.31-2.639,1.742,0,.638.293,1.345,1.034,1.345,1.14,0,1.605-1.1,1.605-2.087Z" transform="translate(-3.74 -4.224)" fill="#fff" stroke="rgba(0,0,0,0)" stroke-miterlimit="10" stroke-width="1"/>
    <path id="パス_5002" data-name="パス 5002" d="M54.613,54.034V52.085h-.035A2.866,2.866,0,0,1,51.9,54.224c-2.14,0-2.312-1.864-2.312-3.519V48.256c0-1.088-.19-1.5-1.328-1.535v-.346l3.054-.552v5.191c0,1,.207,2.037,1.414,2.037,1.328,0,1.881-1.827,1.881-2.9v-1.9c0-1.07-.191-1.5-1.33-1.535v-.346l3.055-.552v8.211Z" transform="translate(-4.449 -4.224)" fill="#fff" stroke="rgba(0,0,0,0)" stroke-miterlimit="10" stroke-width="1"/>
    <path id="パス_5003" data-name="パス 5003" d="M58.868,46.425H58.04a3.971,3.971,0,0,0,1.12-2.052c0-.311-.258-.329-.5-.381a.962.962,0,0,1-.724-1.018,1.147,1.147,0,0,1,1.242-1.1,1.317,1.317,0,0,1,1.312,1.38c0,1.347-.827,2.209-1.622,3.175" transform="translate(-5.341 -3.86)" fill="#fff" stroke="rgba(0,0,0,0)" stroke-miterlimit="10" stroke-width="1"/>
    <path id="パス_5004" data-name="パス 5004" d="M64.1,54.224c-2.709,0-3.727-1.691-3.727-4.191,0-2.588.966-4.21,3.727-4.21,2.57,0,3.725,1.811,3.725,4.21,0,2.571-.982,4.191-3.725,4.191m0-7.814c-1.794,0-1.829,2.346-1.829,3.622,0,1.259.069,3.6,1.829,3.6,1.828,0,1.828-2.293,1.828-3.6,0-1.276-.053-3.622-1.828-3.622" transform="translate(-5.565 -4.224)" fill="#fff" stroke="rgba(0,0,0,0)" stroke-miterlimit="10" stroke-width="1"/>
    <path id="パス_5005" data-name="パス 5005" d="M70.194,53.642V43.913c0-1.069-.172-1.518-1.312-1.57V42l3.037-.432V53.642Z" transform="translate(-6.35 -3.832)" fill="#fff" stroke="rgba(0,0,0,0)" stroke-miterlimit="10" stroke-width="1"/>
    <path id="パス_5006" data-name="パス 5006" d="M69.507,40.338a40.208,40.208,0,0,0-45.613,0A45.26,45.26,0,0,1,46.7,34.353a45.27,45.27,0,0,1,22.807,5.984" transform="translate(-2.203 -3.065)" fill="#fff" stroke="rgba(0,0,0,0)" stroke-miterlimit="10" stroke-width="1"/>
    <path id="パス_5007" data-name="パス 5007" d="M20.329,54.034V48.256c0-1.088-.19-1.5-1.329-1.535v-.346l3.052-.552v8.211Z" transform="translate(-1.751 -4.224)" fill="#fff" stroke="rgba(0,0,0,0)" stroke-miterlimit="10" stroke-width="1"/>
    <path id="パス_5008" data-name="パス 5008" d="M75.209,54.034V48.256c0-1.088-.191-1.5-1.329-1.535v-.346l3.055-.552v8.211Z" transform="translate(-6.81 -4.224)" fill="#fff" stroke="rgba(0,0,0,0)" stroke-miterlimit="10" stroke-width="1"/>
    <path id="パス_5009" data-name="パス 5009" d="M76.2,44.1a1.079,1.079,0,1,1,.016-2.157,1.094,1.094,0,0,1,1.1,1.069A1.112,1.112,0,0,1,76.2,44.1" transform="translate(-6.926 -3.867)" fill="#fff" stroke="rgba(0,0,0,0)" stroke-miterlimit="10" stroke-width="1"/>
  </g>
</svg>
