<svg xmlns="http://www.w3.org/2000/svg" width="288.184" height="278.407" viewBox="0 0 288.184 278.407">
  <g id="お花" transform="translate(0.597 0.688)">
    <path id="合体_5" data-name="合体 5" d="M-4340.308-9863.737c-5.129-10.441-6.882-20.474-.1-28.974,6.068-7.671,17.568-13.788,24.807-21.965,3.906-4.176,8.925-3.924,13.637,4.682a42.491,42.491,0,0,1-10.228,51.379,19.573,19.573,0,0,1-12.826,5.249C-4331.512-9853.366-4337.34-9857.269-4340.308-9863.737Zm-42.092,1.479a22.319,22.319,0,0,1-12.627-12.36,22.321,22.321,0,0,1-.158-16.583,22.379,22.379,0,0,1,28.934-12.777,22.368,22.368,0,0,1,12.788,28.934,22.4,22.4,0,0,1-20.875,14.3A22.294,22.294,0,0,1-4382.4-9862.259Zm107.862-14.5c-8.2-8.462-14.111-11.223-16.606-20.672-2.682-9.6,7.584-27.236,6.015-50.283-.458-6.63,5-10.072,11.437-5.455,20.064,14.752,32.045,41.65,24.183,69.424-2.438,8.834-7.8,12.807-13.433,12.807C-4266.991-9870.938-4271.182-9872.988-4274.538-9876.759Zm-165.613-18.066c-13.078-5.1-15.683-17.988-8.546-27.277,6.875-9.409,14.932-15.6,25.61-13.574,9.623,1.807,20.388,9.154,30.995,11.768,5.5,1.491,7.618,6.07,2.2,14.237a42.669,42.669,0,0,1-34.629,17.844A42.466,42.466,0,0,1-4440.15-9894.825Zm215.857-41.286a26.274,26.274,0,0,0-13.7-2.6,25.377,25.377,0,0,1-10.269-1.263c-12.478-4.468-11.1-35.966-37.554-57.442-6.707-5.439-4.254-11.571,2.921-11.12,31.595,2.313,63.411,21.412,76.252,56.259,4.579,12.112-.8,18.476-8.763,18.477A19.957,19.957,0,0,1-4224.293-9936.111Zm-255.209-36.813c-8.437-13.3-.451-23.354,11.632-23.242,11.777-.395,17.782-2.921,26.466,1.57,8.925,4.468,15.1,23.9,33.228,38.21,5.234,4.127,4.119,10.479-3.631,12.146a65.272,65.272,0,0,1-13.007,1.3C-4445.587-9942.937-4466.854-9952.722-4479.5-9972.925Zm63.543-12.833c-26.575-17.23-45.273-49.28-39.762-86,2.445-17.263,15.69-16.7,23.252-5.676,7.687,10.148,12.124,7.276,19.164,14.924,8.768,9.921-7.579,36.859,5.272,68.406,2.417,5.95.224,9.8-3.561,9.8A8.311,8.311,0,0,1-4415.959-9985.758Zm153.57-30.56c-13.477-7.187-30.537-14.373-52.466-12.132-9.62.987-10.213-3.931-4.712-7.861,32.613-20.5,75.621-26.336,114.579-3.046,16.513,9.684,7.916,21.161-7.412,21.367-14.332.789-9.012,9.455-17.917,13.408a10.237,10.237,0,0,1-4.107.814C-4241.588-10003.767-4250.623-10010.042-4262.389-10016.317Zm-135.274,1.824c-10.1-37.192-3.1-80.011,30.544-110.476,14.08-12.953,22.558-1.4,18.273,13.332-3.427,13.945,6.409,11.373,7.6,21.057,1.824,16.37-38.785,29.56-47.53,73.876-.975,4.943-2.764,7.072-4.558,7.073C-4394.982-10009.631-4396.635-10011.429-4397.663-10014.493Zm35.77-19.922c15.642-38.95,49.069-72.163,98.319-77.387,19.85-2.29,18.509,12.736,4.7,21.751-12.541,8.879-.8,11.681-4.578,21.082-6.9,16.652-61.462,4.839-90.523,36.014-3.615,3.876-6.079,5.471-7.5,5.471C-4363.39-10027.484-4363.438-10030.341-4361.893-10034.415Z" transform="translate(4483 10130.586)" fill="#ece0b1" stroke="rgba(0,0,0,0)" stroke-width="1"/>
  </g>
</svg>
