<svg xmlns="http://www.w3.org/2000/svg" width="518.385" height="316.8" viewBox="0 0 518.385 316.8">
  <g id="グループ_2605" data-name="グループ 2605" transform="translate(-49.615 -45)">
    <text id="平均年齢" transform="translate(224 202.818)" fill="#151515" font-size="40" font-family="HiraginoSans-W6, Hiragino Sans"><tspan x="0" y="0">平均年齢</tspan></text>
    <g id="グループ_2492" data-name="グループ 2492" transform="translate(188.007 113.516)">
      <g id="イラスト" transform="translate(-34.007 -63.516)">
        <g id="カラー" transform="translate(0.03 0)">
          <path id="パス_5274" data-name="パス 5274" d="M235.754,303.574,155.521,176.843,56.416,64.249A149.994,149.994,0,1,1,235.754,303.574" transform="translate(-5.527 -26.859)" fill="#e0cb7d"/>
          <path id="パス_5275" data-name="パス 5275" d="M25.294,214.539A150.021,150.021,0,0,1,52.917,21.71l99.108,112.6L79.957,265.852a149.262,149.262,0,0,1-54.663-51.313" transform="translate(-2.03 15.681)" fill="#ece0b1"/>
          <path id="パス_5276" data-name="パス 5276" d="M223.206,152.876,162.33,15.793l80.233,126.731a151.241,151.241,0,0,1-19.36,10.355" transform="translate(-12.337 134.192)" fill="#dbad84"/>
          <path id="パス_5277" data-name="パス 5277" d="M85.312,133.555,157.38,2.007l60.875,137.081A150.069,150.069,0,0,1,85.31,133.552" transform="translate(-7.385 147.98)" fill="#f8f4e4"/>
        </g>
        <g id="白黒" transform="translate(0 0.001)">
          <path id="パス_5278" data-name="パス 5278" d="M232.257,278.715A149.993,149.993,0,1,1,251.09,264.6,150.019,150.019,0,0,1,232.257,278.715Z" transform="translate(-2 -2)" fill="none" stroke="#14100e" stroke-miterlimit="10" stroke-width="4"/>
          <path id="パス_5279" data-name="パス 5279" d="M242.563,142.526,162.329,15.794l60.877,137.083" transform="translate(-12.308 134.191)" fill="#c1ab58" stroke="#14100e" stroke-miterlimit="10" stroke-width="4"/>
          <path id="パス_5280" data-name="パス 5280" d="M83.454,265.853l72.068-131.548L56.414,21.709" transform="translate(-5.499 15.68)" fill="none" stroke="#14100e" stroke-miterlimit="10" stroke-width="4"/>
          <path id="パス_5281" data-name="パス 5281" d="M275.009,116.314a114.985,114.985,0,1,0-35.645,158.659,114.986,114.986,0,0,0,35.645-158.659" transform="translate(-27.913 -27.915)" fill="#fff"/>
          <path id="パス_5283" data-name="パス 5283" d="M239.363,274.973A114.985,114.985,0,1,0,80.7,239.327,114.986,114.986,0,0,0,239.363,274.973Z" transform="translate(-27.913 -27.915)" fill="none" stroke="#14100e" stroke-miterlimit="10" stroke-width="4"/>
        </g>
      </g>
    </g>
    <text id="_30.17歳" data-name="30.17歳" transform="translate(242 240)" fill="#151515" font-size="56" font-family="Helvetica"><tspan x="0" y="0">30.17</tspan><tspan y="0" font-size="20" font-family="HiraginoSans-W3, Hiragino Sans">歳</tspan></text>
    <text id="平均年齢-2" data-name="平均年齢" transform="translate(302 180)" fill="#151515" font-size="30" font-family="HiraginoSans-W6, Hiragino Sans"><tspan x="-60" y="0">平均年齢</tspan></text>
    <g id="グループ_2495" data-name="グループ 2495" transform="translate(-6 -5)">
      <path id="パス_5284" data-name="パス 5284" d="M5554.114,4422.817l10-20.995h90.917" transform="translate(-5091 -4275.901)" fill="none" stroke="#1a1311" stroke-width="4"/>
      <text id="_52.7_" data-name="52.7%" transform="translate(478 114)" fill="#151515" font-size="40" font-family="Helvetica"><tspan x="0" y="0">52.7</tspan><tspan y="0" font-size="20">%</tspan></text>
      <text id="_20代" data-name="20代" transform="translate(500 68)" fill="#151515" font-size="20" font-family="Helvetica-Bold, Helvetica" font-weight="700"><tspan x="-21.123" y="0">20</tspan><tspan y="0" font-family="HiraginoSans-W6, Hiragino Sans" font-weight="400">代</tspan></text>
    </g>
    <g id="グループ_2497" data-name="グループ 2497" transform="translate(-423.146 -5)">
      <path id="パス_5284-2" data-name="パス 5284" d="M5665.031,4422.817l-10-20.995h-90.917" transform="translate(-5091 -4275.901)" fill="none" stroke="#1a1311" stroke-width="4"/>
      <text id="_30.9_" data-name="30.9%" transform="translate(473.114 114)" fill="#151515" font-size="40" font-family="Helvetica"><tspan x="0" y="0">30.9</tspan><tspan y="0" font-size="20">%</tspan></text>
      <text id="_30代" data-name="30代" transform="translate(495.114 68)" fill="#151515" font-size="20" font-family="Helvetica-Bold, Helvetica" font-weight="700"><tspan x="-21.123" y="0">30</tspan><tspan y="0" font-family="HiraginoSans-W6, Hiragino Sans" font-weight="400">代</tspan></text>
    </g>
    <g id="グループ_2496" data-name="グループ 2496" transform="translate(-6 233.884)">
      <path id="パス_5284-3" data-name="パス 5284" d="M5554.114,4401.823l17.435,20.995H5737.5" transform="translate(-5173.468 -4296.901)" fill="none" stroke="#1a1311" stroke-width="4"/>
      <text id="_1.8_" data-name="1.8%" transform="translate(498 114)" fill="#151515" font-size="40" font-family="Helvetica"><tspan x="0" y="0">1.8</tspan><tspan y="0" font-size="20">%</tspan></text>
      <text id="_50代" data-name="50代" transform="translate(520 68)" fill="#151515" font-size="20" font-family="Helvetica-Bold, Helvetica" font-weight="700"><tspan x="-21.123" y="0">50</tspan><tspan y="0" font-family="HiraginoSans-W6, Hiragino Sans" font-weight="400">代</tspan></text>
    </g>
    <g id="グループ_2498" data-name="グループ 2498" transform="translate(-448.031 232.884)">
      <path id="パス_5284-4" data-name="パス 5284" d="M5742.5,4407.823l-22.435,14.995h-165.95" transform="translate(-5056.468 -4296.901)" fill="none" stroke="#1a1311" stroke-width="4"/>
      <text id="_14.5_" data-name="14.5%" transform="translate(498 114)" fill="#151515" font-size="40" font-family="Helvetica"><tspan x="0" y="0">14.5</tspan><tspan y="0" font-size="20">%</tspan></text>
      <text id="_40代" data-name="40代" transform="translate(520 68)" fill="#151515" font-size="20" font-family="Helvetica-Bold, Helvetica" font-weight="700"><tspan x="-21.123" y="0">40</tspan><tspan y="0" font-family="HiraginoSans-W6, Hiragino Sans" font-weight="400">代</tspan></text>
    </g>
  </g>
</svg>
