<svg xmlns="http://www.w3.org/2000/svg" width="81.852" height="81.905" viewBox="0 0 81.852 81.905">
  <g id="グループ_2507" data-name="グループ 2507" transform="translate(1.025 0.955)">
    <g id="カラー" transform="translate(40.08 2.513)">
      <path id="パス_5307" data-name="パス 5307" d="M183.934,24.26a7.431,7.431,0,0,1-7.413-7.432c0-4.793,5.43-11.643,7.427-14,2,2.293,7.4,8.935,7.4,14a7.431,7.431,0,0,1-7.414,7.432" transform="translate(-153.453 -2.828)" fill="#e0cb7d"/>
      <path id="パス_5308" data-name="パス 5308" d="M120.88,51.74a6.653,6.653,0,1,0,4.7,1.949,6.606,6.606,0,0,0-4.7-1.949" transform="translate(-114.227 -36.099)" fill="#e0cb7d"/>
    </g>
    <g id="グループ_2521" data-name="グループ 2521" transform="translate(0 0)">
      <path id="パス_5285" data-name="パス 5285" d="M78.641,41.219a4.653,4.653,0,1,1,4.653-4.653,4.659,4.659,0,0,1-4.653,4.653m0-11.306a6.653,6.653,0,1,0,6.652,6.653,6.66,6.66,0,0,0-6.652-6.653" transform="translate(-46.728 -19.417)" fill="#151515" stroke="#151515" stroke-linecap="round" stroke-linejoin="round" stroke-width="1.9"/>
      <path id="パス_5286" data-name="パス 5286" d="M40.078,61.19a4.65,4.65,0,1,1,0-6.581,4.658,4.658,0,0,1,0,6.581m-3.29-9.944a6.655,6.655,0,1,0,4.7,1.949,6.609,6.609,0,0,0-4.7-1.949" transform="translate(-19.561 -33.265)" fill="#151515" stroke="#151515" stroke-linecap="round" stroke-linejoin="round" stroke-width="1.9"/>
      <path id="パス_5287" data-name="パス 5287" d="M15.448,101.132a4.653,4.653,0,1,1,4.653,4.653,4.659,4.659,0,0,1-4.653-4.653m11.3,0a6.653,6.653,0,1,0-6.652,6.652,6.659,6.659,0,0,0,6.652-6.652" transform="translate(-8.729 -61.328)" fill="#151515" stroke="#151515" stroke-linecap="round" stroke-linejoin="round" stroke-width="1.9"/>
      <path id="パス_5288" data-name="パス 5288" d="M39.594,147.854a4.653,4.653,0,1,1,0-6.581,4.657,4.657,0,0,1,0,6.581M36.3,137.91a6.656,6.656,0,1,0,4.7,1.949,6.608,6.608,0,0,0-4.7-1.949" transform="translate(-19.25 -89.52)" fill="#151515" stroke="#151515" stroke-linecap="round" stroke-linejoin="round" stroke-width="1.9"/>
      <path id="パス_5289" data-name="パス 5289" d="M77.945,171.045a4.653,4.653,0,1,1,4.653-4.653,4.659,4.659,0,0,1-4.653,4.653m0-11.306a6.653,6.653,0,1,0,6.652,6.653,6.66,6.66,0,0,0-6.652-6.653" transform="translate(-46.277 -103.69)" fill="#151515" stroke="#151515" stroke-linecap="round" stroke-linejoin="round" stroke-width="1.9"/>
      <path id="パス_5290" data-name="パス 5290" d="M123.678,148.345a4.653,4.653,0,1,1,0-6.58,4.66,4.66,0,0,1,0,6.58m-3.289-9.943a6.653,6.653,0,1,0,4.7,1.949,6.611,6.611,0,0,0-4.7-1.949" transform="translate(-73.827 -89.839)" fill="#151515" stroke="#151515" stroke-linecap="round" stroke-linejoin="round" stroke-width="1.9"/>
      <path id="パス_5291" data-name="パス 5291" d="M52.225,47.093a14.58,14.58,0,0,0,3.036,8.942,13.139,13.139,0,0,1,2.608,9.794,13.309,13.309,0,0,1-4.914,8.859A31.52,31.52,0,0,1,45.59,78.96a30.05,30.05,0,0,1-24.757-.746A33.67,33.67,0,0,1,3.39,57.119c-4.8-16.525,3.169-34.751,18.148-41.5a29.259,29.259,0,0,1,12.06-2.8c5.935,0,11.626,2.166,17.189,6.511a17.8,17.8,0,0,1,6,9.058c1.015,3.735.474,7.2-1.526,9.755a14.585,14.585,0,0,0-3.041,8.95m6.5-19.229a19.6,19.6,0,0,0-6.7-10.111c-9.726-7.6-20.258-8.928-31.3-3.955C4.85,20.945-3.6,40.218,1.47,57.678A35.671,35.671,0,0,0,19.965,80.016a32.024,32.024,0,0,0,26.385.794,33.586,33.586,0,0,0,7.832-4.542,15.327,15.327,0,0,0,5.671-10.192,15.126,15.126,0,0,0-3.016-11.271,12.689,12.689,0,0,1,0-15.429c2.4-3.065,3.064-7.153,1.88-11.512" transform="translate(0 -7.046)" fill="#151515" stroke="#151515" stroke-linecap="round" stroke-linejoin="round" stroke-width="1.9"/>
      <path id="パス_5292" data-name="パス 5292" d="M124.171,61.683a4.653,4.653,0,1,1,0-6.58,4.658,4.658,0,0,1,0,6.58M120.88,51.74a6.653,6.653,0,1,0,4.7,1.949,6.606,6.606,0,0,0-4.7-1.949" transform="translate(-74.147 -33.585)" fill="#151515" stroke="#151515" stroke-linecap="round" stroke-linejoin="round" stroke-width="1.9"/>
      <path id="パス_5293" data-name="パス 5293" d="M183.684,23.946a7.431,7.431,0,0,1-7.413-7.432c0-4.793,5.43-11.643,7.427-14,2,2.293,7.4,8.935,7.4,14a7.431,7.431,0,0,1-7.414,7.432m5.106,3.869a1.644,1.644,0,0,1-1.639,1.645h-6.934a1.645,1.645,0,0,1,0-3.291h6.934a1.645,1.645,0,0,1,1.639,1.646M185.12,76.633a1.438,1.438,0,0,1-2.873,0L181.2,31.46h4.959ZM183.674.006a1,1,0,0,0-.728.325c-.353.388-8.675,9.564-8.675,16.183a9.427,9.427,0,0,0,4.439,7.992A3.627,3.627,0,0,0,179.2,31.3l1.048,45.383A3.439,3.439,0,0,0,183.682,80h.006a3.439,3.439,0,0,0,3.433-3.32L188.168,31.3a3.627,3.627,0,0,0,.49-6.79A9.447,9.447,0,0,0,193,17.854V15.159C192.067,8.441,184.74.666,184.409.317a.858.858,0,0,0-.735-.311" transform="translate(-113.123 0)" fill="#151515" stroke="#151515" stroke-linecap="round" stroke-linejoin="round" stroke-width="1.9"/>
    </g>
  </g>
</svg>
