<svg xmlns="http://www.w3.org/2000/svg" width="184.194" height="160.002" viewBox="0 0 184.194 160.002">
  <g id="白黒" transform="translate(0.001 0.001)">
    <path id="パス_5262" data-name="パス 5262" d="M182.388,154.6a197.537,197.537,0,0,0-31.428-8.68l-14.01-19.839c-.046-.069-.119-.1-.173-.161a2.649,2.649,0,0,0-.411-.391,2.862,2.862,0,0,0-.426-.288,2.656,2.656,0,0,0-.487-.184,2.51,2.51,0,0,0-.556-.111,2.221,2.221,0,0,0-.23-.046H84.185L67.443,54.069l31.075-7.345a30.05,30.05,0,1,0-.1-33.2C86.227,6.481,70.087,3.972,53.651,7.863c-14.4,3.4-26.892,11.128-35.181,21.754-8.427,10.81-11.52,23.316-8.7,35.223a2.784,2.784,0,0,0,2.709,2.145,2.864,2.864,0,0,0,.645-.073L62.013,55.354,78.452,124.9H58.172L29.3,92.8a2.791,2.791,0,1,0-4.152,3.73L53.367,127.9,41.7,144.424A208.6,208.6,0,0,0,1.808,154.6a2.792,2.792,0,0,0,1.965,5.227c48.7-18.362,127.946-18.362,176.647,0a2.826,2.826,0,0,0,.982.177,2.791,2.791,0,0,0,.986-5.4M44.5,27.031c1.988-7.736,5.691-12.614,10.434-13.738a9.227,9.227,0,0,1,2.157-.246c4.213,0,8.864,2.721,13.327,7.855C75.6,26.866,79.8,35.273,82.409,44.794L63.448,49.28H63.44L44.48,53.766c-1.938-9.686-1.938-19.083.019-26.735M123.457,5.58a24.517,24.517,0,0,1,0,49.034,24.2,24.2,0,0,1-19.007-9.29l11.881-2.813a2.787,2.787,0,0,0,2.072-3.354,39.463,39.463,0,0,0-15.315-22.595A24.453,24.453,0,0,1,123.457,5.58M112.21,37.752,87.819,43.52c-2.824-10.4-7.441-19.659-13.189-26.275a35.775,35.775,0,0,0-6.113-5.622c.257-.008.514-.019.767-.019,20.185,0,37.633,10.184,42.925,26.148m-89.338-4.7A53.941,53.941,0,0,1,42.039,17.89a35.908,35.908,0,0,0-2.947,7.759c-2.176,8.488-2.153,18.838-.023,29.394L14.675,60.811c-1.37-9.4,1.489-19.152,8.2-27.76m35.5,97.424h21.4l2.41,10.2a320.886,320.886,0,0,0-32.856,2.609ZM87.888,140.56l-2.383-10.085h47.718l9.92,14.049a321.549,321.549,0,0,0-55.255-3.964" transform="translate(-0.001 -0.001)" fill="#1a171b"/>
  </g>
</svg>
