<svg xmlns="http://www.w3.org/2000/svg" width="129.371" height="160.5" viewBox="0 0 129.371 160.5">
  <g id="イラスト" transform="translate(-84.75 -119.75)">
    <g id="カラー" transform="translate(85 120)">
      <path id="パス_5063" data-name="パス 5063" d="M236.125,24.333a10.346,10.346,0,1,0-10.346-10.346,10.358,10.358,0,0,0,10.346,10.346" transform="translate(-171.615 -0.001)" fill="#e0cb7d"/>
      <path id="パス_5064" data-name="パス 5064" d="M154.251,212.895h.038a4.9,4.9,0,0,0,4.908-4.53l.005-.065V182.421a1.82,1.82,0,0,1,3.639,0v91.751c0,.015,0,.03,0,.045a6.034,6.034,0,0,0,3.077,5.258,6.186,6.186,0,0,0,6.2,0,5.853,5.853,0,0,0,3-5.163v-.055c0-.013,0-.027,0-.04v-50.2a1.82,1.82,0,0,1,3.639,0v50.226a5.948,5.948,0,0,0,3.077,5.233,6.188,6.188,0,0,0,6.2,0,5.837,5.837,0,0,0,3-5.233V182.5a1.82,1.82,0,0,1,3.639,0V208.13l.005.066c0,.025,0,.05.008.076a5,5,0,0,0,4.975,4.623h.044a4.867,4.867,0,0,0,4.943-4.532l0-.047V179.3a15.22,15.22,0,0,0-15.185-15.22H164.444a15.237,15.237,0,0,0-15.22,15.22V208.39c0,2.756,2.606,4.484,5.02,4.5h.007" transform="translate(-112.472 -123.946)" fill="#e0cb7d"/>
    </g>
    <g id="白黒" transform="translate(85 120)">
      <path id="パス_5063-2" data-name="パス 5063" d="M236.125,0A13.985,13.985,0,1,1,222.14,13.987,14,14,0,0,1,236.125,0m0,24.332a10.346,10.346,0,1,0-10.346-10.346,10.358,10.358,0,0,0,10.346,10.346" transform="translate(-171.615 -0.001)" fill="#151515" stroke="#151515" stroke-width="0.5"/>
      <path id="パス_5064-2" data-name="パス 5064" d="M189.483,160.436A18.856,18.856,0,0,1,208.305,179.3V208.35c0,.028,0,.055,0,.082s0,.053,0,.081a8.454,8.454,0,0,1-8.557,8.02h-.07a8.586,8.586,0,0,1-2.865-.489l-2.122-.749v58.947a9.467,9.467,0,0,1-4.816,8.38,9.841,9.841,0,0,1-9.857,0,10.183,10.183,0,0,1-1.936-1.459l-1.107-1.061-1.1,1.066a9.957,9.957,0,0,1-1.922,1.455,9.842,9.842,0,0,1-9.858,0A9.637,9.637,0,0,1,159.2,274.2v-.02c0-.018,0-.036,0-.054v-58.8l-2.114.734a8.525,8.525,0,0,1-2.8.47h-.076c-4.757-.041-8.627-3.694-8.627-8.144V179.3a18.881,18.881,0,0,1,18.859-18.859h25.038Zm-35.232,52.459h.038a4.9,4.9,0,0,0,4.908-4.53l.005-.065V182.421a1.82,1.82,0,0,1,3.639,0v91.751c0,.015,0,.03,0,.045a6.034,6.034,0,0,0,3.077,5.258,6.186,6.186,0,0,0,6.2,0,5.853,5.853,0,0,0,3-5.163v-.055c0-.013,0-.027,0-.04v-50.2a1.82,1.82,0,0,1,3.639,0v50.226a5.948,5.948,0,0,0,3.077,5.233,6.188,6.188,0,0,0,6.2,0,5.837,5.837,0,0,0,3-5.233V182.5a1.82,1.82,0,0,1,3.639,0V208.13l.005.066c0,.025,0,.05.008.076a5,5,0,0,0,4.975,4.623h.044a4.867,4.867,0,0,0,4.943-4.532l0-.047V179.3a15.22,15.22,0,0,0-15.185-15.22H164.444a15.237,15.237,0,0,0-15.22,15.22V208.39c0,2.756,2.606,4.484,5.02,4.5h.007" transform="translate(-112.472 -123.946)" fill="#151515" stroke="#151515" stroke-width="0.5"/>
      <path id="パス_5065" data-name="パス 5065" d="M73.036,51.037a11.53,11.53,0,1,1-11.529,11.53,11.543,11.543,0,0,1,11.529-11.53m0,19.421a7.891,7.891,0,1,0-7.89-7.891,7.9,7.9,0,0,0,7.89,7.891" transform="translate(-47.518 -39.429)" fill="#151515" stroke="#151515" stroke-width="0.5"/>
      <path id="パス_5066" data-name="パス 5066" d="M24.292,189.553a1.82,1.82,0,0,1,0,3.639h-8.78a11.848,11.848,0,0,0-11.872,11.8v23.29a3.431,3.431,0,0,0,3.618,3.24h.032a3.594,3.594,0,0,0,3.568-3.306l.007-.073V208.548a1.82,1.82,0,0,1,3.639,0v72.339a4.6,4.6,0,0,0,6.9,3.891,4.308,4.308,0,0,0,2.262-3.741v-.071c0-.01,0-.02,0-.03V240.781a1.82,1.82,0,0,1,3.639,0v40.181a4.294,4.294,0,0,0,2.262,3.817,4.548,4.548,0,0,0,4.56,0,4.313,4.313,0,0,0,2.262-3.741v-.063c0-.015,0-.03,0-.045V249.413a1.82,1.82,0,0,1,3.639,0v31.509c0,.019,0,.039,0,.058v.015a7.967,7.967,0,0,1-4.073,6.932,8.2,8.2,0,0,1-8.214,0,8.615,8.615,0,0,1-1.227-.867l-1.026-.866-1.027.865a8.687,8.687,0,0,1-1.229.868,8.257,8.257,0,0,1-12.364-7.038V234.519l-1.952.454a7.183,7.183,0,0,1-1.623.188H7.227A7.029,7.029,0,0,1,0,228.28V204.99a15.492,15.492,0,0,1,15.511-15.437Z" transform="translate(0 -146.44)" fill="#151515" stroke="#151515" stroke-width="0.5"/>
      <path id="パス_5067" data-name="パス 5067" d="M415.894,51.037a11.53,11.53,0,1,1-11.529,11.53,11.543,11.543,0,0,1,11.529-11.53m0,19.421A7.891,7.891,0,1,0,408,62.567a7.9,7.9,0,0,0,7.89,7.891" transform="translate(-312.394 -39.429)" fill="#151515" stroke="#151515" stroke-width="0.5"/>
      <path id="パス_5068" data-name="パス 5068" d="M415.465,189.553A15.455,15.455,0,0,1,430.9,204.99v23.29a6.989,6.989,0,0,1-7.152,6.879h-.062a7.308,7.308,0,0,1-1.69-.2l-1.961-.466v46.353c0,.019,0,.038,0,.057v.014a7.991,7.991,0,0,1-4,7.008,8.2,8.2,0,0,1-8.215,0,8.45,8.45,0,0,1-1.259-.9l-1.043-.894-1.037.9a8.186,8.186,0,0,1-9.459.892,7.967,7.967,0,0,1-4.073-6.931v-.012c0-.02,0-.04,0-.061V249.413a1.82,1.82,0,1,1,3.639,0v31.519c0,.014,0,.028,0,.043v.064a4.312,4.312,0,0,0,2.262,3.74,4.542,4.542,0,0,0,6.823-3.945V240.781a1.82,1.82,0,1,1,3.639,0v40.044a4.655,4.655,0,0,0,2.336,3.954,4.547,4.547,0,0,0,4.56,0,4.329,4.329,0,0,0,2.188-3.815V280.9c0-.015,0-.03,0-.045V208.548a1.82,1.82,0,1,1,3.639,0v19.476l0,.061c0,.023,0,.046.007.069a3.667,3.667,0,0,0,3.657,3.367h.014a3.388,3.388,0,0,0,3.543-3.24V204.99a11.811,11.811,0,0,0-11.8-11.8H406.61a1.82,1.82,0,1,1,0-3.639h8.856Z" transform="translate(-302.031 -146.44)" fill="#151515" stroke="#151515" stroke-width="0.5"/>
    </g>
  </g>
</svg>
