<svg xmlns="http://www.w3.org/2000/svg" width="222.126" height="236.276" viewBox="0 0 222.126 236.276">
  <g id="イラスト" transform="translate(-335.874 -351.857)">
    <g id="カラー" transform="translate(335.874 351.857)">
      <path id="パス_5216" data-name="パス 5216" d="M115.344,54.336c.846-5.384-1.324-11.121-3.558-15.331a44.461,44.461,0,0,1-4.32,11.68c-2.523,4.7,1.142,9.641,3.174,11.853a13.267,13.267,0,0,0,4.7-8.2" fill="#e0cb7d"/>
      <path id="パス_5218" data-name="パス 5218" d="M171.484,63.44c.611-3.87-.8-8.017-2.327-11.144a36.492,36.492,0,0,1-3.271,8.436c-1.783,3.323.493,6.82,2.241,8.809a10.122,10.122,0,0,0,3.357-6.1" fill="#e0cb7d"/>
      <path id="パス_5219" data-name="パス 5219" d="M53.995,69.541c1.511-1.729,4.072-5.4,2.241-8.81a36.519,36.519,0,0,1-3.27-8.434c-1.526,3.127-2.938,7.274-2.327,11.141a10.116,10.116,0,0,0,3.356,6.1" fill="#e0cb7d"/>
      <path id="パス_5220" data-name="パス 5220" d="M172.9,84.921a1.129,1.129,0,0,0-1.126-1.125h-6.684a1.128,1.128,0,0,0-1.126,1.125V99.793H172.9Z" fill="#fff"/>
      <path id="合体_1" data-name="合体 1" d="M-4723.252-3922.806l78.791-78.786h.111c.154,0,.3-.009.456-.012.265,0,.528-.008.791-.019.155-.006.308-.016.46-.024.352-.021.7-.046,1.052-.079l.238-.024q.64-.065,1.275-.16l.03,0a28.254,28.254,0,0,0,13.736-6.078v1.814l-83.371,83.373Zm-66.413,0,81.361-81.357c.548.249,1.1.489,1.668.7a28.018,28.018,0,0,0,2.959.943,28.259,28.259,0,0,0,6.465.925L-4776-3922.806Zm132.733,0,30.623-30.624v26.875a3.759,3.759,0,0,1-3.749,3.749Zm-161.941-37.216L-4768.9-4010a28.683,28.683,0,0,0,8.017,5.654l-58,58Z" transform="translate(4833.652 4154.826)" fill="#e0cb7d" stroke="rgba(0,0,0,0)" stroke-miterlimit="10" stroke-width="1"/>
      <path id="パス_5223" data-name="パス 5223" d="M166.749,142.113l-.08-.1c-.294-.388-.577-.786-.852-1.19q-.122-.179-.24-.36c-.241-.366-.476-.737-.7-1.116-.11-.186-.214-.376-.32-.565-.189-.337-.38-.673-.556-1.019-.236-.462-.455-.934-.666-1.41-.036-.083-.079-.161-.115-.243a27.89,27.89,0,0,1-18.6,16.123c-.512.141-1.028.265-1.545.376L63.663,232.02h40.724l79.337-79.338a28.383,28.383,0,0,1-16.975-10.569" fill="#fff"/>
      <path id="パス_5224" data-name="パス 5224" d="M170.708,232.019l36.634-36.635V154.658l-77.359,77.361Z" fill="#fff"/>
      <path id="パス_5226" data-name="パス 5226" d="M203.686,104.046H18.435a9.576,9.576,0,0,0-9.569,9.568v11.964q0,1.023.1,2.036l0,.029a23.044,23.044,0,0,0,5.508,12.938c.027.033.046.07.073.1a24.094,24.094,0,0,0,14.621,8.024l.016,0q.565.084,1.139.142l.078.008q.57.057,1.147.086l.061,0c.4.019.8.029,1.2.029h.155c.545,0,1.085-.027,1.623-.064q.318-.024.636-.055c.259-.025.516-.059.773-.092a24.042,24.042,0,0,0,12.4-5.5,24.285,24.285,0,0,0,6.649-9.024c.144-.345.3-.684.423-1.038a3.516,3.516,0,0,1,.285-.615c.028-.05.061-.1.091-.144a3.878,3.878,0,0,1,.292-.4c.041-.048.082-.1.125-.141a3.761,3.761,0,0,1,.373-.342c.037-.029.07-.06.107-.088a3.662,3.662,0,0,1,1.168-.572c.043-.012.087-.02.131-.031a3.555,3.555,0,0,1,.517-.087c.053-.006.1-.01.159-.013s.122-.014.183-.014a3.535,3.535,0,0,1,.355.029c.045,0,.09,0,.136.011a3.567,3.567,0,0,1,2.938,2.415,23.993,23.993,0,0,0,12.559,13.551,24.646,24.646,0,0,0,3,1.14c.241.074.483.145.727.211.282.076.565.152.85.218.419.1.84.181,1.262.255q.411.072.824.129c.339.048.679.087,1.02.121.407.04.814.071,1.223.09.165.009.331.014.5.02A24.175,24.175,0,0,0,95.4,146.6l.052-.025c.342-.164.681-.339,1.018-.521l.057-.03q.515-.282,1.021-.589l.013-.008a24.217,24.217,0,0,0,8.007-8l.052-.086q.351-.578.669-1.176c.038-.073.077-.144.115-.217.189-.362.366-.732.537-1.1.042-.092.088-.183.129-.276.177-.4.342-.808.5-1.219.02-.051.043-.1.062-.153a3.626,3.626,0,0,1,6.859.012,24.148,24.148,0,0,0,27.13,15.339c.01,0,.019-.008.029-.01.45-.082.892-.182,1.333-.289a24.1,24.1,0,0,0,16.808-15.052,3.523,3.523,0,0,1,.283-.613c.023-.042.05-.08.075-.12a3.553,3.553,0,0,1,.323-.442c.016-.018.026-.039.041-.056s.028-.023.04-.036a3.592,3.592,0,0,1,1.7-1.037l.021-.008c.015,0,.03,0,.044-.008a3.722,3.722,0,0,1,.571-.1c.025,0,.049-.01.075-.012h0c.022,0,.044,0,.066,0,.06,0,.119-.014.18-.014h.011v0h.005c.1,0,.2.015.3.024.067.005.132.006.2.015a3.612,3.612,0,0,1,.648.15l.015,0c.014.005.027.015.041.02a3.544,3.544,0,0,1,.64.3c.038.023.076.044.113.069a3.586,3.586,0,0,1,1.059,1.055c.03.045.058.089.085.135a3.574,3.574,0,0,1,.306.642.4.4,0,0,1,.017.036c.048.132.109.258.159.389q.188.483.392.954c.12.271.243.54.371.805.053.11.111.218.164.327a24.239,24.239,0,0,0,17.537,12.927c.4.066.8.132,1.213.178l.166.019c.584.062,1.173.1,1.767.124.035,0,.068.011.1.014.057,0,.113.006.169.007.245.007.49.015.736.014.186,0,.371-.008.556-.013s.4-.008.6-.018c.295-.015.589-.04.882-.066.1-.009.2-.014.306-.024.283-.029.562-.067.842-.1.121-.017.242-.029.363-.047.2-.03.4-.069.593-.1s.416-.07.624-.113c.1-.021.2-.047.307-.069.3-.066.607-.134.91-.213l.087-.024q1.15-.3,2.29-.724.723-.269,1.425-.583l.026-.012a24.253,24.253,0,0,0,6.382-4.177c.061-.055.12-.111.18-.167.275-.254.54-.516.8-.782.1-.106.209-.211.311-.319.208-.22.408-.447.608-.674a22.981,22.981,0,0,0,5.729-15.162v-11.97a9.593,9.593,0,0,0-9.566-9.567" fill="#fff"/>
      <path id="パス_5227" data-name="パス 5227" d="M111.058,136.118c-.119.279-.259.545-.387.818-.085.181-.168.363-.256.542-.157.318-.318.633-.486.944-.032.059-.067.116-.1.175l-.045.077q-.54.972-1.152,1.893c-.069.1-.139.209-.21.313-.433.634-.887,1.249-1.368,1.842-.041.051-.078.1-.119.153a28.377,28.377,0,0,1-3.516,3.57c-.1.082-.193.161-.29.241q-.886.735-1.829,1.4l-.128.092a28.337,28.337,0,0,1-8.7,4.054l-.336.09c-.395.1-.789.2-1.19.288q-.769.167-1.544.292c-.145.022-.292.038-.438.058s-.279.038-.419.056c-.038,0-.076.01-.114.015q-.544.067-1.092.112c-.059.005-.118.012-.178.016l-.18.013c-.359.026-.719.044-1.079.056l-.387.01c-.176,0-.352.014-.527.014s-.336-.009-.5-.012c-.106,0-.211,0-.317-.007-.324-.009-.649-.025-.973-.046l-.444-.03c-.273-.022-.546-.049-.819-.079-.193-.021-.386-.042-.58-.067-.214-.028-.428-.061-.642-.094-.247-.037-.494-.075-.74-.119-.135-.025-.269-.053-.4-.08-.155-.03-.311-.059-.466-.092l-.069-.013-.426-.1h0q-.667-.155-1.331-.341c-.049-.013-.1-.022-.149-.036l-62.348,62.35V228.27a3.758,3.758,0,0,0,3.75,3.749H37.97l83.471-83.471a27.824,27.824,0,0,1-10.383-12.43" fill="#fff"/>
      <path id="パス_5228" data-name="パス 5228" d="M58.163,99.793V84.921A1.129,1.129,0,0,0,57.037,83.8H50.352a1.128,1.128,0,0,0-1.126,1.125V99.793Z" fill="#fff"/>
      <path id="パス_5229" data-name="パス 5229" d="M117.107,80.1a1.128,1.128,0,0,0-1.125-1.126h-9.827a1.128,1.128,0,0,0-1.126,1.126v19.7h12.078Z" fill="#fff"/>
      <path id="パス_5230" data-name="パス 5230" d="M60.673,139.514c-.173-.285-.346-.57-.509-.862s-.308-.578-.458-.87c-.066-.13-.138-.256-.2-.387-.192-.39-.374-.786-.549-1.185-.016-.037-.034-.072-.05-.109-.17.4-.365.783-.553,1.171-.019.039-.036.079-.055.117a28.319,28.319,0,0,1-24.158,15.8c-.305.016-.61.03-.916.035-.087,0-.173.01-.26.01h-.144c-.13,0-.259-.008-.389-.01q-.38,0-.76-.019c-.186-.007-.373-.016-.558-.027-.3-.017-.6-.04-.907-.067-.156-.015-.313-.029-.469-.046-.308-.033-.616-.072-.923-.115-.162-.023-.323-.045-.484-.071-.283-.044-.566-.1-.849-.149-.189-.035-.378-.071-.566-.111-.243-.051-.486-.108-.73-.165-.226-.054-.451-.109-.675-.168-.2-.053-.4-.111-.606-.169-.261-.075-.521-.152-.779-.234-.17-.054-.34-.112-.51-.17-.279-.1-.558-.193-.834-.3-.071-.027-.144-.049-.215-.077-.055-.021-.107-.048-.162-.069-.635-.249-1.262-.514-1.874-.805-.062-.03-.122-.063-.184-.093-.536-.26-1.06-.539-1.577-.831-.144-.081-.289-.16-.431-.244q-.764-.448-1.492-.944-.29-.2-.574-.4-.527-.375-1.033-.773a6.069,6.069,0,0,1-.459.773v40.835l47.245-47.246c-.4-.544-.781-1.1-1.139-1.67-.073-.117-.139-.239-.211-.357" fill="#fff"/>
      <path id="パス_5242" data-name="パス 5242" d="M109.078,66.955a2.123,2.123,0,0,0,1.378.509h0v0a2.1,2.1,0,0,0,1.2-.372,17.806,17.806,0,0,0,7.887-12.1c1.77-11.251-7.021-22.957-7.4-23.451a2.126,2.126,0,0,0-3.816,1.26,37.546,37.546,0,0,1-4.611,15.863c-5.006,9.326,4.931,17.928,5.356,18.289m2.486-29.391Zm-4.1,13.121a44.426,44.426,0,0,0,4.32-11.68c2.234,4.21,4.4,9.947,3.558,15.331a13.265,13.265,0,0,1-4.7,8.2c-2.032-2.212-5.7-7.152-3.175-11.853" fill="#111"/>
      <path id="パス_5243" data-name="パス 5243" d="M166.563,74a2.122,2.122,0,0,0,1.376.506h0v0a2.1,2.1,0,0,0,1.2-.371,14.783,14.783,0,0,0,6.542-10.042c1.41-8.975-5.278-18.216-6.052-19.25a2.14,2.14,0,0,0-1.685-.834h-.005a2.119,2.119,0,0,0-1.5.62,2.1,2.1,0,0,0-.624,1.475,29.888,29.888,0,0,1-3.675,12.623C157.949,66.535,166.209,73.7,166.563,74m1.564-4.458c-1.748-1.989-4.024-5.486-2.241-8.81a36.467,36.467,0,0,0,3.271-8.435c1.526,3.127,2.938,7.274,2.327,11.144a10.122,10.122,0,0,1-3.357,6.1" fill="#111"/>
      <path id="パス_5244" data-name="パス 5244" d="M52.966,74.125a2.116,2.116,0,0,0,1.213.38v0h0A2.133,2.133,0,0,0,55.559,74c.353-.3,8.614-7.462,4.419-15.281a30.165,30.165,0,0,1-3.673-12.587,2.125,2.125,0,0,0-3.819-1.286c-.769,1.022-7.463,10.247-6.048,19.25a14.773,14.773,0,0,0,6.528,10.032m0-21.828a36.457,36.457,0,0,0,3.27,8.434c1.831,3.411-.73,7.082-2.241,8.81a10.122,10.122,0,0,1-3.357-6.1c-.61-3.868.8-8.015,2.328-11.142" fill="#111"/>
    </g>
    <g id="白黒" transform="translate(335.874 351.857)">
      <path id="パス_5217" data-name="パス 5217" d="M111.564,37.564Z" fill="#111"/>
      <path id="パス_5242-2" data-name="パス 5242" d="M109.078,66.955a2.123,2.123,0,0,0,1.378.509h0v0a2.1,2.1,0,0,0,1.2-.372,17.806,17.806,0,0,0,7.887-12.1c1.77-11.251-7.021-22.957-7.4-23.451a2.126,2.126,0,0,0-3.816,1.26,37.546,37.546,0,0,1-4.611,15.863c-5.006,9.326,4.931,17.928,5.356,18.289m2.486-29.391Zm-4.1,13.121a44.426,44.426,0,0,0,4.32-11.68c2.234,4.21,4.4,9.947,3.558,15.331a13.265,13.265,0,0,1-4.7,8.2c-2.032-2.212-5.7-7.152-3.175-11.853" fill="#111"/>
      <path id="パス_5243-2" data-name="パス 5243" d="M166.563,74a2.122,2.122,0,0,0,1.376.506h0v0a2.1,2.1,0,0,0,1.2-.371,14.783,14.783,0,0,0,6.542-10.042c1.41-8.975-5.278-18.216-6.052-19.25a2.14,2.14,0,0,0-1.685-.834h-.005a2.119,2.119,0,0,0-1.5.62,2.1,2.1,0,0,0-.624,1.475,29.888,29.888,0,0,1-3.675,12.623C157.949,66.535,166.209,73.7,166.563,74m1.564-4.458c-1.748-1.989-4.024-5.486-2.241-8.81a36.467,36.467,0,0,0,3.271-8.435c1.526,3.127,2.938,7.274,2.327,11.144a10.122,10.122,0,0,1-3.357,6.1" fill="#111"/>
      <path id="パス_5244-2" data-name="パス 5244" d="M52.966,74.125a2.116,2.116,0,0,0,1.213.38v0h0A2.133,2.133,0,0,0,55.559,74c.353-.3,8.614-7.462,4.419-15.281a30.165,30.165,0,0,1-3.673-12.587,2.125,2.125,0,0,0-3.819-1.286c-.769,1.022-7.463,10.247-6.048,19.25a14.773,14.773,0,0,0,6.528,10.032m0-21.828a36.457,36.457,0,0,0,3.27,8.434c1.831,3.411-.73,7.082-2.241,8.81a10.122,10.122,0,0,1-3.357-6.1c-.61-3.868.8-8.015,2.328-11.142" fill="#111"/>
      <path id="パス_5245" data-name="パス 5245" d="M220,232.02h-9.348a7.945,7.945,0,0,0,.942-3.749V142.489a27.163,27.163,0,0,0,5.913-16.91V113.613a13.859,13.859,0,0,0-13.82-13.82H177.15V84.919a5.392,5.392,0,0,0-5.378-5.377h-6.685a5.392,5.392,0,0,0-5.377,5.377V99.793H121.355V80.1a5.393,5.393,0,0,0-5.377-5.378H106.15a5.392,5.392,0,0,0-5.377,5.378v19.7H62.415V84.919a5.392,5.392,0,0,0-5.378-5.377H50.352a5.391,5.391,0,0,0-5.377,5.377V99.793H18.435A13.862,13.862,0,0,0,4.613,113.614V125.58a27.166,27.166,0,0,0,5.914,16.912V146.3h0v52.749h0v29.22a7.938,7.938,0,0,0,.942,3.747H2.126a2.126,2.126,0,1,0,0,4.252H38.852v0l.02,0h85.937c.013,0,.025,0,.038,0h46.737v0l.02,0H220a2.126,2.126,0,1,0,0-4.252M49.226,84.922A1.129,1.129,0,0,1,50.352,83.8h6.684a1.131,1.131,0,0,1,1.127,1.125V99.793H49.227Zm67.881,14.871H105.028V80.1a1.129,1.129,0,0,1,1.126-1.127h9.827a1.13,1.13,0,0,1,1.126,1.126Zm55.791,0h-8.936V84.922a1.128,1.128,0,0,1,1.126-1.126h6.683a1.131,1.131,0,0,1,1.127,1.125ZM14.473,140.582a23.054,23.054,0,0,1-5.508-12.939l0-.029q-.093-1.011-.1-2.035V113.615a9.576,9.576,0,0,1,9.569-9.568H203.686a9.594,9.594,0,0,1,9.567,9.567v11.97a22.974,22.974,0,0,1-5.73,15.161c-.2.228-.4.455-.608.675-.1.108-.208.213-.312.319-.262.266-.528.528-.8.782l-.179.167a24.3,24.3,0,0,1-6.383,4.177l-.025.011q-.7.315-1.426.584-1.138.423-2.29.724c-.029.008-.057.017-.087.024-.3.079-.606.146-.91.213-.1.022-.2.048-.307.069-.208.043-.416.076-.623.113s-.394.074-.593.1c-.121.018-.242.03-.363.047-.28.038-.56.076-.843.1-.1.01-.2.015-.306.024-.293.026-.586.05-.882.066-.2.01-.4.012-.6.017s-.369.013-.555.014c-.246,0-.491-.008-.736-.015-.057,0-.113,0-.169-.006-.035,0-.068-.013-.1-.014-.594-.019-1.183-.062-1.767-.124l-.165-.02c-.409-.046-.812-.111-1.214-.177A24.243,24.243,0,0,1,167.738,135.7c-.055-.109-.111-.217-.164-.327-.129-.265-.252-.534-.372-.8q-.205-.471-.392-.954c-.05-.131-.11-.257-.158-.389,0-.013-.013-.024-.018-.037a3.607,3.607,0,0,0-.306-.642c-.027-.045-.055-.089-.084-.134a3.6,3.6,0,0,0-1.06-1.056c-.037-.024-.075-.045-.113-.068a3.546,3.546,0,0,0-.64-.305c-.014-.006-.026-.015-.041-.02l-.015,0a3.609,3.609,0,0,0-.648-.149c-.067-.009-.132-.01-.2-.016-.1-.008-.2-.024-.3-.024h0v0h-.011c-.061,0-.119.012-.18.015-.022,0-.044,0-.066,0h0c-.026,0-.049.011-.075.013a3.511,3.511,0,0,0-.571.1c-.014,0-.029,0-.043.008l-.023.008a3.6,3.6,0,0,0-1.7,1.036c-.012.014-.027.023-.039.037s-.027.038-.041.056a3.514,3.514,0,0,0-.323.441c-.026.041-.053.079-.077.121a3.515,3.515,0,0,0-.281.613,24.127,24.127,0,0,1-14.269,14.27,24.669,24.669,0,0,1-2.54.782c-.441.107-.884.207-1.332.289-.011,0-.019.008-.03.01a24.151,24.151,0,0,1-27.13-15.339,3.626,3.626,0,0,0-6.859-.012c-.019.052-.042.1-.062.153-.155.411-.32.818-.5,1.219-.041.093-.086.183-.129.276-.17.372-.348.741-.537,1.1-.038.073-.077.144-.115.216-.213.4-.435.792-.669,1.177l-.052.086a24.217,24.217,0,0,1-8.007,8l-.013.007q-.506.309-1.021.59l-.057.03q-.5.273-1.018.521l-.052.024a24.175,24.175,0,0,1-11.113,2.348c-.166-.005-.332-.01-.5-.019q-.612-.03-1.223-.09c-.341-.034-.681-.073-1.02-.121-.275-.039-.55-.081-.823-.129-.423-.075-.844-.158-1.263-.255-.285-.066-.567-.142-.85-.218-.244-.066-.486-.138-.727-.211a24.552,24.552,0,0,1-3-1.141,23.986,23.986,0,0,1-12.558-13.55,3.647,3.647,0,0,0-2.261-2.261,3.549,3.549,0,0,0-.678-.154c-.046-.007-.09-.007-.136-.012-.118-.011-.237-.029-.355-.029-.061,0-.121.012-.183.015l-.159.012a3.6,3.6,0,0,0-.517.088c-.044.011-.088.019-.131.031a3.647,3.647,0,0,0-1.167.572c-.038.027-.071.059-.108.088a3.531,3.531,0,0,0-.372.342c-.044.046-.085.092-.126.141a3.49,3.49,0,0,0-.291.4c-.031.049-.064.1-.093.145a3.592,3.592,0,0,0-.284.615c-.128.353-.279.693-.423,1.038A24.178,24.178,0,0,1,36,148.77c-.258.033-.515.067-.774.091q-.317.032-.636.056c-.538.036-1.078.063-1.623.063h-.155q-.606,0-1.2-.03l-.062,0q-.578-.03-1.147-.086l-.078-.008q-.573-.059-1.139-.142l-.016,0a24.088,24.088,0,0,1-14.621-8.023c-.027-.033-.046-.071-.073-.1m110.874,10.079c.548.251,1.1.49,1.668.706a28.823,28.823,0,0,0,2.959.943,28.229,28.229,0,0,0,6.465.924L57.653,232.019H43.987Zm17.73,1.946c.517-.112,1.032-.235,1.545-.376a27.893,27.893,0,0,0,18.6-16.124c.035.083.078.161.115.244.21.476.43.948.666,1.409.175.347.366.683.556,1.02.106.189.209.379.32.565.224.379.459.749.7,1.116q.119.182.24.36c.275.4.557.8.852,1.19l.08.1a28.383,28.383,0,0,0,16.975,10.569l-79.338,79.337H63.663Zm-128.3-4.655a6,6,0,0,0,.459-.773q.507.4,1.033.774c.19.135.381.27.574.4q.73.5,1.491.945c.143.084.288.162.432.244q.774.438,1.577.831c.062.03.122.063.184.092.612.292,1.238.557,1.874.805.055.022.107.049.162.07.071.027.144.049.215.076.276.1.554.2.834.3.17.058.34.115.51.169q.387.123.779.235c.2.058.4.115.606.169.223.059.449.113.675.167.243.058.487.114.73.166.188.039.377.075.566.111.283.053.566.1.849.149.161.025.322.048.483.07q.462.066.924.116c.156.016.312.031.469.045.3.027.6.05.906.068.186.011.373.019.559.027.254.009.507.016.76.019.13,0,.258.009.389.009h.144c.087,0,.173-.009.26-.01.306-.005.611-.019.916-.034a28.318,28.318,0,0,0,24.157-15.8c.019-.039.037-.079.056-.117.187-.389.382-.773.553-1.172.016.037.034.072.05.109.175.4.357.8.549,1.186.065.13.137.257.2.386.15.292.3.585.458.871s.336.576.509.861c.071.119.138.24.211.358.358.572.742,1.126,1.138,1.67L14.778,188.788Zm192.563,6.706v40.727l-36.633,36.634H129.983Zm0-6.011L123.97,232.019H110.4l78.792-78.786h.111c.153,0,.3-.009.456-.011.264,0,.528-.009.791-.02.154-.007.308-.015.461-.024q.528-.03,1.051-.079l.239-.024q.641-.066,1.274-.159l.031-.005a28.249,28.249,0,0,0,13.736-6.079ZM77.275,152.173q.663.188,1.331.341h0l.426.1.069.013c.155.033.31.062.466.092.135.027.269.055.4.08.246.044.493.082.74.119.214.033.428.066.642.094.193.025.387.046.58.067.273.03.546.057.819.079l.444.03c.324.021.648.037.973.046.105,0,.211.006.317.007.168,0,.335.012.5.012s.352-.011.528-.014l.387-.01c.36-.012.72-.03,1.079-.056l.18-.013c.06,0,.119-.011.178-.016q.547-.045,1.092-.112c.038-.005.076-.011.114-.015.14-.018.28-.036.419-.056s.292-.036.437-.058q.775-.125,1.545-.292c.4-.086.8-.186,1.19-.288.112-.03.224-.059.335-.09a28.331,28.331,0,0,0,8.7-4.054l.128-.092q.942-.661,1.828-1.4c.1-.08.195-.159.291-.241a28.377,28.377,0,0,0,3.516-3.57c.04-.05.078-.1.119-.153q.72-.89,1.368-1.842c.071-.1.141-.208.21-.313q.612-.921,1.152-1.893c.015-.026.03-.051.044-.077.033-.059.067-.116.1-.175.168-.311.328-.626.485-.944.089-.179.171-.361.257-.542.127-.273.267-.539.387-.818a27.817,27.817,0,0,0,10.383,12.43L37.969,232.019H18.528a3.758,3.758,0,0,1-3.75-3.749V214.487l62.348-62.35c.049.014.1.023.149.036m99.444,79.846L207.341,201.4V228.27a3.758,3.758,0,0,1-3.749,3.749ZM64.757,144.826a28.692,28.692,0,0,0,8.015,5.654l-57.994,58V194.8Z" fill="#111"/>
      <g id="表示順_3">
        <path id="パス_5206" data-name="パス 5206" d="M111.061,9.13v-.5h0v.5A2.127,2.127,0,0,0,113.187,7V2.124A2.128,2.128,0,0,0,111.061,0h0a2.125,2.125,0,0,0-2.124,2.127V7a2.129,2.129,0,0,0,2.126,2.126" fill="#111"/>
        <path id="パス_5207" data-name="パス 5207" d="M111.061,25.829h0a2.125,2.125,0,0,0,2.124-2.126v-4.88A2.129,2.129,0,0,0,111.06,16.7h0a2.129,2.129,0,0,0-2.124,2.127V23.7a2.129,2.129,0,0,0,2.126,2.126" fill="#111"/>
        <path id="パス_5208" data-name="パス 5208" d="M137.367,20.026h0a2.108,2.108,0,0,0,1.5-.623l3.45-3.449a2.126,2.126,0,0,0,0-3.007,2.177,2.177,0,0,0-3.007,0L135.865,16.4a2.126,2.126,0,0,0,1.5,3.63" fill="#111"/>
        <path id="パス_5209" data-name="パス 5209" d="M125.559,31.834v-.5h0v.5h0a2.134,2.134,0,0,0,1.5-.623l3.449-3.449a2.129,2.129,0,0,0,0-3.007,2.177,2.177,0,0,0-3.007,0l-3.45,3.449a2.127,2.127,0,0,0,1.5,3.63" fill="#111"/>
        <path id="パス_5210" data-name="パス 5210" d="M148.262,46.332h4.879a2.126,2.126,0,0,0,0-4.252h-4.88a2.126,2.126,0,0,0,0,4.252" fill="#111"/>
        <path id="パス_5211" data-name="パス 5211" d="M129.439,44.2a2.13,2.13,0,0,0,2.125,2.128h4.881a2.127,2.127,0,0,0,0-4.253h-4.878a2.13,2.13,0,0,0-2.124,2.125" fill="#111"/>
        <path id="パス_5212" data-name="パス 5212" d="M68.982,46.332h4.877v-.5h0v.5a2.126,2.126,0,0,0,0-4.252H68.982a2.126,2.126,0,0,0,0,4.252" fill="#111"/>
        <path id="パス_5213" data-name="パス 5213" d="M83.555,44.2a2.13,2.13,0,0,0,2.125,2.128h4.878a2.127,2.127,0,0,0,0-4.253H85.679A2.131,2.131,0,0,0,83.555,44.2" fill="#111"/>
        <path id="パス_5214" data-name="パス 5214" d="M83.251,19.4a2.138,2.138,0,0,0,1.5.623h0v-.5h0v.5a2.14,2.14,0,0,0,1.5-.623,2.126,2.126,0,0,0,0-3.006l-3.449-3.45A2.127,2.127,0,0,0,79.8,15.954Z" fill="#111"/>
        <path id="パス_5215" data-name="パス 5215" d="M95.059,31.211a2.108,2.108,0,0,0,1.5.623h0a2.126,2.126,0,0,0,1.5-3.63l-3.449-3.449a2.177,2.177,0,0,0-3.007,0,2.129,2.129,0,0,0,0,3.007Z" fill="#111"/>
        <path id="パス_5217-2" data-name="パス 5217" d="M111.564,37.564Z" fill="#111"/>
      </g>
    </g>
  </g>
</svg>
