<svg xmlns="http://www.w3.org/2000/svg" width="90.001" height="77.809" viewBox="0 0 90.001 77.809">
  <g id="グループ_2529" data-name="グループ 2529" transform="translate(-8.463 -8.463)">
    <path id="パス_5294" data-name="パス 5294" d="M179.694,36.963H143.441V19.292a8.829,8.829,0,0,1,8.829-8.829h18.595a8.829,8.829,0,0,1,8.829,8.829Z" transform="translate(-108.104)" fill="none" stroke="#05135a" stroke-linecap="round" stroke-linejoin="round" stroke-width="4"/>
    <path id="パス_5295" data-name="パス 5295" d="M93.523,155.085H13.4a2.94,2.94,0,0,1-2.938-3.055l1.973-50.563a4.056,4.056,0,0,1,4.053-3.9H90.436a4.056,4.056,0,0,1,4.053,3.9l1.973,50.563a2.94,2.94,0,0,1-2.938,3.055" transform="translate(0 -70.814)" fill="#fff"/>
    <path id="パス_5296" data-name="パス 5296" d="M93.523,155.085H13.4a2.94,2.94,0,0,1-2.938-3.055l1.973-50.563a4.056,4.056,0,0,1,4.053-3.9H90.436a4.056,4.056,0,0,1,4.053,3.9l1.973,50.563A2.94,2.94,0,0,1,93.523,155.085Z" transform="translate(0 -70.814)" fill="none" stroke="#151515" stroke-linecap="round" stroke-linejoin="round" stroke-width="4"/>
    <path id="パス_5299" data-name="パス 5299" d="M0,0H81.944" transform="translate(12.492 55.514)" fill="none" stroke="#151515" stroke-linecap="round" stroke-width="4"/>
    <path id="パス_5297" data-name="パス 5297" d="M203.4,220.667h0a8.5,8.5,0,0,1-8.5-8.5v-8.5h17v8.5a8.5,8.5,0,0,1-8.5,8.5" transform="translate(-149.935 -157.062)" fill="#e0cb7d"/>
    <path id="パス_5298" data-name="パス 5298" d="M203.4,220.667h0a8.5,8.5,0,0,1-8.5-8.5v-8.5h17v8.5A8.5,8.5,0,0,1,203.4,220.667Z" transform="translate(-149.935 -157.062)" fill="none" stroke="#151515" stroke-linecap="round" stroke-linejoin="round" stroke-width="4"/>
  </g>
</svg>
