<svg xmlns="http://www.w3.org/2000/svg" width="159.627" height="159.625" viewBox="0 0 159.627 159.625">
  <g id="イラスト" transform="translate(-0.186 -0.188)">
    <g id="カラー">
      <path id="中マド_1" data-name="中マド 1" d="M-5403.187-4712.375a78.354,78.354,0,0,1-15.682-1.581,77.372,77.372,0,0,1-14.606-4.534,77.832,77.832,0,0,1-13.218-7.174,78.322,78.322,0,0,1-11.516-9.5,78.369,78.369,0,0,1-9.5-11.516,77.836,77.836,0,0,1-7.174-13.217,77.422,77.422,0,0,1-4.534-14.606,78.342,78.342,0,0,1-1.581-15.682,78.346,78.346,0,0,1,1.581-15.682,77.4,77.4,0,0,1,4.534-14.607,77.853,77.853,0,0,1,7.174-13.218,78.369,78.369,0,0,1,9.5-11.516,78.367,78.367,0,0,1,11.516-9.5,77.885,77.885,0,0,1,13.218-7.174,77.372,77.372,0,0,1,14.606-4.534,78.354,78.354,0,0,1,15.682-1.581,78.354,78.354,0,0,1,15.682,1.581,77.372,77.372,0,0,1,14.606,4.534,77.885,77.885,0,0,1,13.218,7.174,78.367,78.367,0,0,1,11.516,9.5,78.369,78.369,0,0,1,9.5,11.516,77.853,77.853,0,0,1,7.174,13.218,77.4,77.4,0,0,1,4.534,14.607,78.346,78.346,0,0,1,1.581,15.682,78.342,78.342,0,0,1-1.581,15.682,77.422,77.422,0,0,1-4.534,14.606,77.836,77.836,0,0,1-7.174,13.217,78.369,78.369,0,0,1-9.5,11.516,78.322,78.322,0,0,1-11.516,9.5,77.832,77.832,0,0,1-13.218,7.174,77.372,77.372,0,0,1-14.606,4.534A78.354,78.354,0,0,1-5403.187-4712.375Zm0-141.308a63.093,63.093,0,0,0-24.715,4.99,63.529,63.529,0,0,0-10.786,5.854,64.038,64.038,0,0,0-9.4,7.753,64.038,64.038,0,0,0-7.753,9.4,63.529,63.529,0,0,0-5.854,10.786,63.093,63.093,0,0,0-4.99,24.715,63.093,63.093,0,0,0,4.99,24.715,63.529,63.529,0,0,0,5.854,10.786,64.038,64.038,0,0,0,7.753,9.4,64.038,64.038,0,0,0,9.4,7.753,63.529,63.529,0,0,0,10.786,5.854,63.093,63.093,0,0,0,24.715,4.99,63.093,63.093,0,0,0,24.715-4.99,63.529,63.529,0,0,0,10.786-5.854,64.005,64.005,0,0,0,9.4-7.753,64.038,64.038,0,0,0,7.753-9.4,63.476,63.476,0,0,0,5.854-10.786,63.093,63.093,0,0,0,4.99-24.715,63.093,63.093,0,0,0-4.99-24.715,63.476,63.476,0,0,0-5.854-10.786,64.038,64.038,0,0,0-7.753-9.4,64.005,64.005,0,0,0-9.4-7.753,63.529,63.529,0,0,0-10.786-5.854A63.093,63.093,0,0,0-5403.187-4853.682Z" transform="translate(5483.186 4870.188)" fill="#e0cb7d" stroke="#151515" stroke-miterlimit="2.613" stroke-width="4"/>
    </g>
    <g id="白黒">
      <path id="パス_5094" data-name="パス 5094" d="M79.171,1.358A77.813,77.813,0,1,1,1.357,79.172,77.813,77.813,0,0,1,79.171,1.358Z" transform="translate(0.829 0.83)" fill="none" stroke="#151515" stroke-miterlimit="2.613" stroke-width="4"/>
      <circle id="楕円形_5" data-name="楕円形 5" cx="63.495" cy="63.495" r="63.495" transform="translate(16.505 16.505)" fill="none" stroke="#151515" stroke-miterlimit="2.613" stroke-width="4"/>
      <line id="線_5" data-name="線 5" y1="20.541" x2="20.541" transform="translate(80 59.459)" fill="none" stroke="#151515" stroke-linecap="round" stroke-miterlimit="2.613" stroke-width="4"/>
      <line id="線_6" data-name="線 6" x1="28.54" y1="28.541" transform="translate(51.46 51.459)" fill="none" stroke="#151515" stroke-linecap="round" stroke-miterlimit="2.613" stroke-width="4"/>
      <line id="線_7" data-name="線 7" y2="12.586" transform="translate(80 16.505)" fill="none" stroke="#151515" stroke-linecap="round" stroke-miterlimit="2.613" stroke-width="4"/>
      <line id="線_8" data-name="線 8" x1="8.899" y2="8.899" transform="translate(115.998 35.104)" fill="none" stroke="#151515" stroke-linecap="round" stroke-miterlimit="2.613" stroke-width="4"/>
      <line id="線_9" data-name="線 9" x1="12.586" transform="translate(130.908 80)" fill="none" stroke="#151515" stroke-linecap="round" stroke-miterlimit="2.613" stroke-width="4"/>
      <line id="線_10" data-name="線 10" x1="8.899" y1="8.899" transform="translate(115.998 115.998)" fill="none" stroke="#151515" stroke-linecap="round" stroke-miterlimit="2.613" stroke-width="4"/>
      <line id="線_11" data-name="線 11" y1="12.586" transform="translate(80 130.909)" fill="none" stroke="#151515" stroke-linecap="round" stroke-miterlimit="2.613" stroke-width="4"/>
      <line id="線_12" data-name="線 12" y1="8.899" x2="8.899" transform="translate(35.103 115.998)" fill="none" stroke="#151515" stroke-linecap="round" stroke-miterlimit="2.613" stroke-width="4"/>
      <line id="線_13" data-name="線 13" x2="12.586" transform="translate(16.505 80)" fill="none" stroke="#151515" stroke-linecap="round" stroke-miterlimit="2.613" stroke-width="4"/>
      <line id="線_14" data-name="線 14" x2="8.899" y2="8.899" transform="translate(35.103 35.104)" fill="none" stroke="#151515" stroke-linecap="round" stroke-miterlimit="2.613" stroke-width="4"/>
    </g>
  </g>
</svg>
