<svg xmlns="http://www.w3.org/2000/svg" width="192" height="160" viewBox="0 0 192 160">
  <g id="イラスト" transform="translate(-52.446 -115.852)">
    <g id="カラー" transform="translate(52.446 124.041)">
      <path id="長方形_1694" data-name="長方形 1694" d="M20,0H172a20,20,0,0,1,20,20V32a0,0,0,0,1,0,0H0a0,0,0,0,1,0,0V20A20,20,0,0,1,20,0Z" fill="#e0cb7d"/>
      <path id="パス_5264" data-name="パス 5264" d="M0,0H20.614V20.614H0Z" transform="translate(105.827 100.499)" fill="#e0cb7d"/>
    </g>
    <g id="白黒" transform="translate(53.422 115.852)">
      <path id="パス_5263" data-name="パス 5263" d="M176.655,160.073H13.092A13.282,13.282,0,0,1-.15,146.831V21.6A13.28,13.28,0,0,1,13.092,8.363H42.87a2.094,2.094,0,0,1,0,4.187H13.1a9.093,9.093,0,0,0-9.066,9.066v125.2a9.094,9.094,0,0,0,9.067,9.067H176.642a9.094,9.094,0,0,0,9.067-9.067V21.617a9.093,9.093,0,0,0-9.066-9.066H149.064a2.094,2.094,0,1,1,0-4.187h27.591A13.28,13.28,0,0,1,189.9,21.6V146.831a13.282,13.282,0,0,1-13.242,13.242Z" transform="translate(0.15 -0.073)" fill="#1d1d1b"/>
      <path id="線_26" data-name="線 26" d="M60.249,2.037H-.056A2.094,2.094,0,0,1-2.15-.056,2.094,2.094,0,0,1-.056-2.15H60.249A2.094,2.094,0,0,1,62.343-.056,2.094,2.094,0,0,1,60.249,2.037Z" transform="translate(64.42 10.44)" fill="#1d1d1b"/>
      <path id="線_27" data-name="線 27" d="M-.056,22.7A2.094,2.094,0,0,1-2.15,20.607V-.056A2.094,2.094,0,0,1-.056-2.15,2.094,2.094,0,0,1,2.037-.056V20.607A2.094,2.094,0,0,1-.056,22.7Z" transform="translate(53.356 2.15)" fill="#1d1d1b"/>
      <path id="線_28" data-name="線 28" d="M-.056,22.7A2.094,2.094,0,0,1-2.15,20.607V-.056A2.094,2.094,0,0,1-.056-2.15,2.094,2.094,0,0,1,2.037-.056V20.607A2.094,2.094,0,0,1-.056,22.7Z" transform="translate(136.803 2.15)" fill="#1d1d1b"/>
      <path id="線_29" data-name="線 29" d="M183.4,2.037H-.056A2.094,2.094,0,0,1-2.15-.056,2.094,2.094,0,0,1-.056-2.15H183.4a2.094,2.094,0,0,1,2.094,2.094A2.094,2.094,0,0,1,183.4,2.037Z" transform="translate(4.558 39.475)" fill="#1d1d1b"/>
      <path id="長方形_1685" data-name="長方形 1685" d="M-.056-2.15H20.018A2.094,2.094,0,0,1,22.112-.056V20.018a2.094,2.094,0,0,1-2.094,2.094H-.056A2.094,2.094,0,0,1-2.15,20.018V-.056A2.094,2.094,0,0,1-.056-2.15ZM17.924,2.037H2.037V17.924H17.924Z" transform="translate(30.023 68.844)" fill="#1d1d1b"/>
      <path id="長方形_1686" data-name="長方形 1686" d="M-.056-2.15H20.018A2.094,2.094,0,0,1,22.112-.056V20.018a2.094,2.094,0,0,1-2.094,2.094H-.056A2.094,2.094,0,0,1-2.15,20.018V-.056A2.094,2.094,0,0,1-.056-2.15ZM17.924,2.037H2.037V17.924H17.924Z" transform="translate(67.336 68.844)" fill="#1d1d1b"/>
      <path id="長方形_1687" data-name="長方形 1687" d="M-.056-2.15H20.018A2.094,2.094,0,0,1,22.112-.056V20.018a2.094,2.094,0,0,1-2.094,2.094H-.056A2.094,2.094,0,0,1-2.15,20.018V-.056A2.094,2.094,0,0,1-.056-2.15ZM17.924,2.037H2.037V17.924H17.924Z" transform="translate(104.65 68.844)" fill="#1d1d1b"/>
      <path id="長方形_1688" data-name="長方形 1688" d="M-.056-2.15H20.018A2.094,2.094,0,0,1,22.112-.056V20.018a2.094,2.094,0,0,1-2.094,2.094H-.056A2.094,2.094,0,0,1-2.15,20.018V-.056A2.094,2.094,0,0,1-.056-2.15ZM17.924,2.037H2.037V17.924H17.924Z" transform="translate(141.964 68.844)" fill="#1d1d1b"/>
      <path id="長方形_1689" data-name="長方形 1689" d="M-.056-2.15H20.018A2.094,2.094,0,0,1,22.112-.056V20.018a2.094,2.094,0,0,1-2.094,2.094H-.056A2.094,2.094,0,0,1-2.15,20.018V-.056A2.094,2.094,0,0,1-.056-2.15ZM17.924,2.037H2.037V17.924H17.924Z" transform="translate(30.023 106.834)" fill="#1d1d1b"/>
      <path id="長方形_1690" data-name="長方形 1690" d="M-.056-2.15H20.018A2.094,2.094,0,0,1,22.112-.056V20.018a2.094,2.094,0,0,1-2.094,2.094H-.056A2.094,2.094,0,0,1-2.15,20.018V-.056A2.094,2.094,0,0,1-.056-2.15ZM17.924,2.037H2.037V17.924H17.924Z" transform="translate(67.336 106.834)" fill="#1d1d1b"/>
      <path id="長方形_1692" data-name="長方形 1692" d="M-2.15-2.15H22.112V22.112H-2.15ZM17.924,2.037H2.037V17.924H17.924Z" transform="translate(104.65 106.834)" fill="#1d1d1b"/>
      <path id="長方形_1693" data-name="長方形 1693" d="M-.056-2.15H20.018A2.094,2.094,0,0,1,22.112-.056V20.018a2.094,2.094,0,0,1-2.094,2.094H-.056A2.094,2.094,0,0,1-2.15,20.018V-.056A2.094,2.094,0,0,1-.056-2.15ZM17.924,2.037H2.037V17.924H17.924Z" transform="translate(104.65 106.834)" fill="#1d1d1b"/>
    </g>
  </g>
</svg>
