<svg xmlns="http://www.w3.org/2000/svg" xmlns:xlink="http://www.w3.org/1999/xlink" width="102.442" height="90" viewBox="0 0 102.442 90">
  <defs>
    <clipPath id="clip-path">
      <rect id="長方形_1716" data-name="長方形 1716" width="102.442" height="90" fill="none"/>
    </clipPath>
  </defs>
  <g id="グループ_2562" data-name="グループ 2562" transform="translate(-59.036 -19.473)">
    <g id="グループ_2563" data-name="グループ 2563" transform="translate(94.744 30.473)">
      <path id="パス_5363" data-name="パス 5363" d="M5.72,30.256l-4.9-10.18V12.855l3.889-8.18,7.466-3.8h6.49l5.839,2.916L28.755,9.83l1.633,6.5L28.755,22.6,26.541,29.52l-2.034,1.469-4.433-4.037,4.433-3.094,2.034-4.939-1.365-6.062-1.8-2.119s-4.276,2.984-7.818,3.5-10.847,0-10.847,0-.679,3.938,0,5.842,1.788,4.393,3.116,5.2,2.738,1.676,2.738,1.676L7.828,29.52Z" fill="#922ea2"/>
      <path id="パス_5334" data-name="パス 5334" d="M55.516,98.112a3.229,3.229,0,0,0-2.032.359,3.276,3.276,0,0,0-2.032-.357,2.672,2.672,0,0,0-1.987,1.556,3.08,3.08,0,0,0,.224,2.981,9.291,9.291,0,0,0,3.5,2.882.7.7,0,0,0,.593,0,9.281,9.281,0,0,0,3.5-2.884A3.079,3.079,0,0,0,57.5,99.67a2.674,2.674,0,0,0-1.987-1.558m.572,3.8a7.412,7.412,0,0,1-2.607,2.2,7.478,7.478,0,0,1-2.6-2.2,1.675,1.675,0,0,1-.142-1.646,1.287,1.287,0,0,1,.911-.761,2.1,2.1,0,0,1,.3-.022,1.613,1.613,0,0,1,1.046.344.714.714,0,0,0,.983.008,1.657,1.657,0,0,1,1.35-.331,1.288,1.288,0,0,1,.91.763,1.671,1.671,0,0,1-.144,1.644" transform="translate(-32.874 -65.556)" stroke="#000" stroke-width="1"/>
      <path id="パス_5335" data-name="パス 5335" d="M30.053,10.737C25.773-.469,15.662,0,15.6,0h-.131C15.358-.006,5.255-.47.974,10.737c-3.392,8.88,3.091,18.706,4.053,20.088a14.887,14.887,0,0,0-3.361,8.558.7.7,0,0,0,1.4.112A13.564,13.564,0,0,1,11.017,27.88a11.361,11.361,0,0,0,8.738.019,13.643,13.643,0,0,1,8.006,11.6.7.7,0,0,0,.7.645c.019,0,.037,0,.057,0a.7.7,0,0,0,.642-.754,14.9,14.9,0,0,0-3.251-8.426c.46-.641,7.687-10.947,4.145-20.221M5.413,17.363a9.857,9.857,0,0,1,.236-2.124c4.745.354,12.713.228,17.931-3.637a10,10,0,1,1-18.168,5.76m15.856,9.763a11.375,11.375,0,0,0,2.983-16.956.705.705,0,0,0-.475-.256.717.717,0,0,0-.516.159C18.051,14.4,8.878,14.117,5.174,13.795a.72.72,0,0,0-.735.511A11.325,11.325,0,0,0,9.546,27.121,16.6,16.6,0,0,0,6,29.76C4.717,27.806-.656,18.934,2.284,11.239c3.9-10.223,12.731-9.856,13.143-9.832h.215c.08,0,9.183-.426,13.1,9.833,3.015,7.89-2.705,17.011-3.8,18.648a16.563,16.563,0,0,0-3.671-2.761" transform="translate(0 0)" stroke="#000" stroke-width="1"/>
      <path id="パス_5336" data-name="パス 5336" d="M34.3,54.2a.987.987,0,1,0-.987-.987.987.987,0,0,0,.987.987" transform="translate(-22.269 -34.905)" stroke="#000" stroke-width="1"/>
      <path id="パス_5337" data-name="パス 5337" d="M55.284,54.2a.987.987,0,1,0-.987-.987.987.987,0,0,0,.987.987" transform="translate(-36.293 -34.905)" stroke="#000" stroke-width="1"/>
      <path id="パス_5338" data-name="パス 5338" d="M40.354,63.5a6.424,6.424,0,0,1-8.085,0,.7.7,0,1,0-.9,1.071,7.658,7.658,0,0,0,9.892,0,.7.7,0,1,0-.9-1.071" transform="translate(-20.799 -42.335)" stroke="#000" stroke-width="1"/>
    </g>
    <g id="グループ_2561" data-name="グループ 2561" transform="translate(59.036 19.473)">
      <g id="グループ_2560" data-name="グループ 2560" transform="translate(0 0)" clip-path="url(#clip-path)">
        <path id="長方形_1715" data-name="長方形 1715" d="M11.584,0H88.563a11.584,11.584,0,0,1,11.584,11.584V61.869A11.583,11.583,0,0,1,88.564,73.452H11.583A11.583,11.583,0,0,1,0,61.869V11.584A11.584,11.584,0,0,1,11.584,0Z" transform="translate(1.147 1.148)" fill="none" stroke="#000" stroke-miterlimit="2.613" stroke-width="2.715"/>
        <line id="線_51" data-name="線 51" x2="100.146" transform="translate(1.148 58.669)" fill="none" stroke="#000" stroke-miterlimit="2.613" stroke-width="2.715"/>
        <path id="パス_5339" data-name="パス 5339" d="M49.752,88.249H64.225v8.09H76.692V102.5H37.285V96.339H49.752Z" transform="translate(-5.767 -13.649)" fill="none" stroke="#000" stroke-miterlimit="2.613" stroke-width="2.715"/>
      </g>
    </g>
  </g>
</svg>
