<svg xmlns="http://www.w3.org/2000/svg" width="108.835" height="91" viewBox="0 0 108.835 91">
  <g id="グループ_2571" data-name="グループ 2571" transform="translate(0.498 0.5)">
    <path id="パス_5361" data-name="パス 5361" d="M2.332,2.41,10.67,21.938l4.4-8.875,7.6-6.049Z" fill="#f706a3"/>
    <path id="パス_5362" data-name="パス 5362" d="M140.773,89.748v10.406l14.279,12.908-1.8-13.6L167,97.857,150.541,87.5Z" transform="translate(-61 -25)" fill="#f706a3"/>
    <path id="パス_5358" data-name="パス 5358" d="M106.98,71.344,93.726,62.582a59.3,59.3,0,0,0,6.259-8.124c5.906-9.447,6.76-20.3,2.342-29.777C98.493,16.456,91.215,10.657,83.334,9.55c-12.457-1.742-20.6,3.3-23.67,5.684C56.6,12.853,48.438,7.8,35.987,9.561a23.784,23.784,0,0,0-13.74,7.431L17.634,13.46l6.215-4.666a1.914,1.914,0,0,0-.672-3.382L2.388.058A1.93,1.93,0,0,0,.448.68,1.911,1.911,0,0,0,.169,2.7L9.347,23.042a1.909,1.909,0,0,0,1.742,1.126h0a1.91,1.91,0,0,0,1.742-1.133l2.8-6.284,4.179,3.2A29.231,29.231,0,0,0,17,24.681c-4.426,9.482-3.576,20.341,2.331,29.792,12.16,19.46,38.407,31.862,39.519,32.382a1.913,1.913,0,0,0,1.616,0A126.653,126.653,0,0,0,78.286,76.19a1.874,1.874,0,0,0,.257.35L92.9,89.507A1.906,1.906,0,0,0,94.185,90a1.91,1.91,0,0,0,1.891-2.193L94.338,76.084l11.788-1.244a1.911,1.911,0,0,0,.855-3.5M11.08,17.584,5.293,4.757,18.371,8.123l-4.22,3.169a1.93,1.93,0,0,0-.6.751ZM59.656,83c-4.512-2.247-26.672-13.888-37.086-30.55-5.2-8.331-5.974-17.861-2.107-26.148,3.3-7.062,9.447-12.026,16.055-12.95a32.556,32.556,0,0,1,4.555-.325c10.927,0,16.959,5.8,17.243,6.082a1.917,1.917,0,0,0,2.7-.005c.079-.077,7.866-7.706,21.789-5.763,6.61.928,12.764,5.895,16.058,12.959,3.86,8.283,3.088,17.808-2.12,26.136A55.4,55.4,0,0,1,90.4,60.5a1.966,1.966,0,0,0-1.047-.094l-9.244,2.118L62.007,48.662A1.912,1.912,0,1,0,59.684,51.7L77.652,65.455l.167,6.291A129.737,129.737,0,0,1,59.656,83m32.3-10.5a1.913,1.913,0,0,0-1.691,2.181L91.511,83.1l-9.8-8.847-.216-8.12,7.917-1.814,11.014,7.28Z"/>
    <path id="パス_5358_-_アウトライン" data-name="パス 5358 - アウトライン" d="M94.185,90.5a2.4,2.4,0,0,1-1.617-.623L78.207,76.911l-.032-.03a125.358,125.358,0,0,1-17.5,10.427,2.413,2.413,0,0,1-2.04,0A122.051,122.051,0,0,1,42.95,78.18,107.627,107.627,0,0,1,30.136,68.035,67.2,67.2,0,0,1,18.9,54.738c-6-9.6-6.858-20.631-2.36-30.268a29.034,29.034,0,0,1,2.587-4.416l-3.293-2.522-2.547,5.706a2.411,2.411,0,0,1-4.4.009L-.287,2.9A2.417,2.417,0,0,1,2.51-.427L23.3,4.927a2.414,2.414,0,0,1,.847,4.266l-5.687,4.27,3.735,2.86A26.44,26.44,0,0,1,28.4,11.6a22.068,22.068,0,0,1,7.515-2.53,37.009,37.009,0,0,1,5.165-.37,32.217,32.217,0,0,1,12.089,2.291A28.8,28.8,0,0,1,59.663,14.6a28.692,28.692,0,0,1,6.5-3.623,32.3,32.3,0,0,1,12.11-2.291,37.19,37.19,0,0,1,5.131.364c8.048,1.131,15.473,7.037,19.377,15.416,4.491,9.633,3.627,20.659-2.371,30.253a57.71,57.71,0,0,1-5.925,7.761l12.773,8.443a2.411,2.411,0,0,1-1.078,4.41L94.909,76.527l1.662,11.208a2.416,2.416,0,0,1-1.246,2.481A2.446,2.446,0,0,1,94.185,90.5ZM78.409,75.488l.288.418c.027.038.052.078.077.117a.853.853,0,0,0,.1.146L93.239,89.136a1.4,1.4,0,0,0,.946.364,1.44,1.44,0,0,0,.67-.168,1.413,1.413,0,0,0,.727-1.451L93.767,75.642l12.306-1.3a1.411,1.411,0,0,0,.631-2.582L92.966,62.68l.387-.431a58,58,0,0,0,6.207-8.055c5.815-9.3,6.658-19.981,2.313-29.3C98.111,16.818,90.98,11.129,83.264,10.045a36.184,36.184,0,0,0-4.992-.354A31.308,31.308,0,0,0,66.535,11.91a27.432,27.432,0,0,0-6.564,3.719l-.307.238-.307-.238A27.547,27.547,0,0,0,52.8,11.914,31.222,31.222,0,0,0,41.083,9.7a36.007,36.007,0,0,0-5.026.361A23.355,23.355,0,0,0,22.61,17.337l-.31.326-5.493-4.206,6.742-5.062a1.414,1.414,0,0,0-.5-2.5L2.263.542A1.412,1.412,0,0,0,.625,2.491L9.8,22.836a1.411,1.411,0,0,0,2.575,0l3.063-6.863,5.067,3.88-.284.394a28.607,28.607,0,0,0-2.774,4.65c-4.352,9.325-3.513,20.01,2.3,29.316,12.07,19.315,38.2,31.677,39.307,32.194a1.413,1.413,0,0,0,1.193,0A127.164,127.164,0,0,0,78,75.783ZM59.657,83.554l-.223-.111a127.49,127.49,0,0,1-16.4-9.91,100.231,100.231,0,0,1-11.259-9.241A61.6,61.6,0,0,1,22.146,52.71c-5.3-8.479-6.076-18.183-2.136-26.624C23.379,18.871,29.678,13.8,36.45,12.853a33.226,33.226,0,0,1,4.624-.33c11.159,0,17.337,5.972,17.594,6.226a1.412,1.412,0,0,0,1,.408,1.4,1.4,0,0,0,1-.411l0,0c.26-.254,6.494-6.222,17.658-6.222a33.026,33.026,0,0,1,4.549.322c6.776.951,13.076,6.026,16.442,13.243,3.933,8.44,3.149,18.14-2.149,26.612a55.254,55.254,0,0,1-6.393,8.142l-.221.24-.309-.105a1.464,1.464,0,0,0-.778-.079L80,63.064,61.7,49.059A1.412,1.412,0,1,0,59.988,51.3L78.146,65.2l.181,6.789-.209.155a129.4,129.4,0,0,1-18.238,11.3ZM41.074,13.523a32.226,32.226,0,0,0-4.485.32c-6.441.9-12.446,5.754-15.672,12.666-3.794,8.128-3.037,17.485,2.078,25.671,10.2,16.314,31.832,27.83,36.662,30.256A128.861,128.861,0,0,0,77.313,71.5l-.154-5.792L59.38,52.1a2.411,2.411,0,0,1,2.931-3.83l17.92,13.72,9.025-2.068a2.3,2.3,0,0,1,.989.019,53.585,53.585,0,0,0,6.073-7.768c5.116-8.181-7.139-37.43-13.583-38.335a32.021,32.021,0,0,0-4.41-.312,28.407,28.407,0,0,0-7.243.922,26.207,26.207,0,0,0-5.309,2.031,19.559,19.559,0,0,0-4.405,2.982,2.417,2.417,0,0,1-3.4.006A19.4,19.4,0,0,0,53.459,16.4a25.9,25.9,0,0,0-5.247-1.986A28.357,28.357,0,0,0,41.074,13.523Z" fill="#f4f4f4"/>
  </g>
</svg>
