<svg xmlns="http://www.w3.org/2000/svg" width="88.909" height="88.909" viewBox="0 0 88.909 88.909">
  <g id="グループ_2569" data-name="グループ 2569" transform="translate(-122.545 -17.545)">
    <path id="パス_5349" data-name="パス 5349" d="M24,112.545V92.091A4.1,4.1,0,0,1,28.091,88H32.9" transform="translate(104.136 -48.5)" fill="none" stroke="#000" stroke-linecap="round" stroke-linejoin="round" stroke-width="3"/>
    <path id="パス_5350" data-name="パス 5350" d="M316.091,137.091v-45A4.1,4.1,0,0,0,312,88" transform="translate(-110.227 -48.5)" fill="none" stroke="#000" stroke-linecap="round" stroke-linejoin="round" stroke-width="3"/>
    <line id="線_52" data-name="線 52" x1="12.989" transform="translate(160.148 39.5)" fill="none" stroke="#000" stroke-linecap="round" stroke-linejoin="round" stroke-width="3"/>
    <path id="パス_5351" data-name="パス 5351" d="M232,288.182h28.636L256.545,280H232" transform="translate(-50.682 -191.409)" fill="none" stroke="#000" stroke-linecap="round" stroke-linejoin="round" stroke-width="3"/>
    <path id="パス_5352" data-name="パス 5352" d="M260.636,312h0a8.182,8.182,0,0,1-8.182,8.182H232" transform="translate(-50.682 -215.227)" fill="none" stroke="#000" stroke-linecap="round" stroke-linejoin="round" stroke-width="3"/>
    <path id="パス_5353" data-name="パス 5353" d="M220.32,204.091A8.141,8.141,0,0,1,227.4,200h4.091a8.18,8.18,0,0,1,8.182,8.182v4.091" transform="translate(-41.988 -131.864)" fill="none" stroke="#000" stroke-linecap="round" stroke-linejoin="round" stroke-width="3"/>
    <path id="パス_5354" data-name="パス 5354" d="M238.136,134.318h0a6.136,6.136,0,0,0,6.136-6.136v-2.045a6.136,6.136,0,1,0-12.273,0v2.045A6.136,6.136,0,0,0,238.136,134.318Z" transform="translate(-50.682 -72.318)" fill="none" stroke="#000" stroke-linecap="round" stroke-linejoin="round" stroke-width="3"/>
    <path id="パス_5355" data-name="パス 5355" d="M8,236.818V216.364A16.364,16.364,0,0,1,24.364,200H40.727a16.364,16.364,0,0,1,16.364,16.364v20.455" transform="translate(116.045 -131.864)" fill="none" stroke="#000" stroke-linecap="round" stroke-linejoin="round" stroke-width="3"/>
    <path id="パス_5356" data-name="パス 5356" d="M68.273,84.636h0A12.273,12.273,0,0,1,56,72.364V68.273a12.273,12.273,0,0,1,24.545,0v4.091A12.273,12.273,0,0,1,68.273,84.636Z" transform="translate(80.318 -24.682)" fill="none" stroke="#000" stroke-linecap="round" stroke-linejoin="round" stroke-width="3"/>
    <path id="パス_5357" data-name="パス 5357" d="M216.727,28.455h-22.5l-6.136,8.182V28.455A4.091,4.091,0,0,1,184,24.364V12.091A4.091,4.091,0,0,1,188.091,8h28.636a4.091,4.091,0,0,1,4.091,4.091V24.364A4.091,4.091,0,0,1,216.727,28.455Z" transform="translate(-14.955 11.045)" fill="#81c2ce" stroke="#000" stroke-linecap="round" stroke-linejoin="round" stroke-width="3"/>
    <line id="線_53" data-name="線 53" transform="translate(179.273 29.273)" fill="none" stroke="#000" stroke-linecap="round" stroke-linejoin="round" stroke-width="3"/>
    <line id="線_54" data-name="線 54" transform="translate(187.455 29.273)" fill="none" stroke="#000" stroke-linecap="round" stroke-linejoin="round" stroke-width="3"/>
    <line id="線_55" data-name="線 55" transform="translate(195.636 29.273)" fill="none" stroke="#000" stroke-linecap="round" stroke-linejoin="round" stroke-width="3"/>
  </g>
</svg>
