<svg id="グループ_2566" data-name="グループ 2566" xmlns="http://www.w3.org/2000/svg" width="75.504" height="90" viewBox="0 0 75.504 90">
  <rect id="長方形_1717" data-name="長方形 1717" width="65" height="80" transform="translate(0.914 9)" fill="#f4c600"/>
  <path id="パス_5360" data-name="パス 5360" d="M10.5,1.566V80.988H73.929v-64.7L57.842,1.566Z" fill="#f8f4e4"/>
  <path id="パス_5340" data-name="パス 5340" d="M75.486,16.834a1.318,1.318,0,0,0-.071-.362c-.017-.043-.026-.086-.047-.127a1.371,1.371,0,0,0-.261-.388l0-.006L59.552.4,59.544.4a1.336,1.336,0,0,0-.386-.261c-.039-.019-.081-.028-.122-.045a1.359,1.359,0,0,0-.377-.075c-.026,0-.047-.015-.071-.015H10A1.364,1.364,0,0,0,8.634,1.365V7.4H1.363A1.362,1.362,0,0,0,0,8.766V88.637A1.362,1.362,0,0,0,1.363,90H65.505a1.363,1.363,0,0,0,1.363-1.363V82.6h7.273A1.363,1.363,0,0,0,75.5,81.236V16.916c0-.03-.017-.054-.019-.083m-4.637-1.281h-10.9V4.656ZM64.142,87.272H2.726V10.131H8.634V81.236A1.362,1.362,0,0,0,10,82.6H64.142Zm8.634-7.4H11.361V2.726H57.223v14.19a1.364,1.364,0,0,0,1.365,1.363H72.776Z" fill="#151515"/>
  <path id="パス_5341" data-name="パス 5341" d="M12.469,11.021H36.332a1.363,1.363,0,0,0,0-2.726H12.469a1.363,1.363,0,1,0,0,2.726" transform="translate(9.716 7.258)" fill="#151515"/>
  <path id="パス_5342" data-name="パス 5342" d="M11.1,14.749a1.366,1.366,0,0,0,1.365,1.365H52.7a1.364,1.364,0,1,0,0-2.728H12.469A1.366,1.366,0,0,0,11.1,14.749" transform="translate(9.716 11.713)" fill="#151515"/>
  <path id="パス_5343" data-name="パス 5343" d="M12.469,21.2H48.6a1.363,1.363,0,1,0,0-2.726H12.469a1.363,1.363,0,1,0,0,2.726" transform="translate(9.716 16.168)" fill="#151515"/>
  <path id="パス_5344" data-name="パス 5344" d="M12.469,26.3H28.148a1.364,1.364,0,1,0,0-2.728H12.469a1.364,1.364,0,1,0,0,2.728" transform="translate(9.716 20.622)" fill="#151515"/>
  <path id="パス_5345" data-name="パス 5345" d="M41.877,23.568H24.833a1.364,1.364,0,0,0,0,2.728H41.877a1.364,1.364,0,0,0,0-2.728" transform="translate(20.536 20.622)" fill="#151515"/>
  <path id="パス_5346" data-name="パス 5346" d="M12.469,31.388H44.515a1.364,1.364,0,0,0,0-2.728H12.469a1.364,1.364,0,1,0,0,2.728" transform="translate(9.716 25.077)" fill="#151515"/>
  <path id="パス_5347" data-name="パス 5347" d="M26.784,33.751H12.468a1.364,1.364,0,0,0,0,2.728H26.784a1.364,1.364,0,1,0,0-2.728" transform="translate(9.717 29.532)" fill="#151515"/>
  <path id="パス_5348" data-name="パス 5348" d="M38.058,33.751H29.2a1.364,1.364,0,0,0,0,2.728h8.861a1.364,1.364,0,0,0,0-2.728" transform="translate(24.355 29.532)" fill="#151515"/>
</svg>
