<svg xmlns="http://www.w3.org/2000/svg" width="80" height="80" viewBox="0 0 80 80">
  <g id="グループ_2599" data-name="グループ 2599" transform="translate(-14)">
    <circle id="楕円形_6" data-name="楕円形 6" cx="40" cy="40" r="40" transform="translate(14)" fill="#f4f4f4"/>
    <g id="icon" transform="translate(34 20)">
      <circle id="楕円形_89" data-name="楕円形 89" cx="4.5" cy="4.5" r="4.5" transform="translate(30 18)" fill="#fff"/>
      <path id="パス_5184" data-name="パス 5184" d="M37.771,18.756a5.32,5.32,0,1,0-5.106,8.9l.31.081v3.391a6.155,6.155,0,0,1-6.148,6.15H19.658a6.156,6.156,0,0,1-6.149-6.15V16.378l8.809-5.089a5.335,5.335,0,0,0,2.66-4.608V0H20.072V2.038h2.867V6.7A3.3,3.3,0,0,1,21.3,9.546l-8.81,5.083-.093-.053L3.679,9.546A3.293,3.293,0,0,1,2.038,6.7V2.038H4.907V0H0V6.684A5.333,5.333,0,0,0,2.66,11.29l8.81,5.091V31.127a8.2,8.2,0,0,0,8.188,8.188h7.169a8.2,8.2,0,0,0,8.188-8.188V27.733l.311-.079a5.319,5.319,0,0,0,2.445-8.9m-3.776,7.051a3.282,3.282,0,1,1,3.282-3.282,3.284,3.284,0,0,1-3.282,3.282" fill="#151515"/>
    </g>
  </g>
</svg>
