<svg xmlns="http://www.w3.org/2000/svg" width="80" height="80" viewBox="0 0 80 80">
  <g id="グループ_2601" data-name="グループ 2601" transform="translate(-32)">
    <circle id="楕円形_6" data-name="楕円形 6" cx="40" cy="40" r="40" transform="translate(32)" fill="#f4f4f4"/>
    <g id="アイコン" transform="translate(62 19)">
      <path id="パス_5393" data-name="パス 5393" d="M1.453,40.166l2.124,1.146H16.41l2.259-2.059V17.142l-1.727-1.568,1.727-1.288V11.571L16.41,10.565l-1.831-3.2L11.113,5.4l.544-3.859L9.516.149l-1.9,1.776V5.4L4.9,7.365,3.226,9.8,1.917,10.97.463,12.2v1.654l1.455,1.717L.463,17.142V38.62Z" fill="#fff"/>
      <path id="パス_5376" data-name="パス 5376" d="M19.271,13.377v-.582a2.5,2.5,0,0,0-2.5-2.5h-.048c-.947-2.766-2.659-4.557-4.983-5.213L11.986,2.4c0-.016,0-.032,0-.048a2.353,2.353,0,0,0-4.706,0c0,.016,0,.032,0,.048l.248,2.678C5.209,5.735,3.5,7.526,2.55,10.292H2.5a2.5,2.5,0,0,0-2.5,2.5v.582a2.5,2.5,0,0,0,1.42,2.255A3.688,3.688,0,0,0,0,18.539V38a3.7,3.7,0,0,0,3.693,3.693H15.577A3.7,3.7,0,0,0,19.271,38V18.539a3.688,3.688,0,0,0-1.42-2.907,2.505,2.505,0,0,0,1.42-2.255M8.168,5.984a.516.516,0,0,0,.4-.463l.014-.179a.51.51,0,0,0,0-.089L8.315,2.332a1.321,1.321,0,0,1,2.641,0l-.271,2.922a.526.526,0,0,0,0,.089l.014.179a.516.516,0,0,0,.4.463,6.317,6.317,0,0,1,4.521,4.308H3.647A6.316,6.316,0,0,1,8.168,5.984m10.07,12.555V38a2.664,2.664,0,0,1-2.661,2.661H3.693A2.664,2.664,0,0,1,1.033,38V18.539a2.664,2.664,0,0,1,2.661-2.661H15.577a2.664,2.664,0,0,1,2.661,2.661m0-5.163a1.471,1.471,0,0,1-1.469,1.469H2.5a1.471,1.471,0,0,1-1.469-1.469v-.582A1.471,1.471,0,0,1,2.5,11.325H16.769a1.471,1.471,0,0,1,1.469,1.469Z" transform="translate(0 -0.001)" fill="#151515" stroke="#151515" stroke-width="1"/>
    </g>
  </g>
</svg>
