<svg xmlns="http://www.w3.org/2000/svg" width="80" height="80" viewBox="0 0 80 80">
  <g id="グループ_2602" data-name="グループ 2602" transform="translate(-32)">
    <circle id="楕円形_6" data-name="楕円形 6" cx="40" cy="40" r="40" transform="translate(32)" fill="#f4f4f4"/>
    <g id="icon" transform="translate(53 19)">
      <rect id="長方形_1707" data-name="長方形 1707" width="37" height="41" rx="5" fill="#fff"/>
      <path id="パス_5191" data-name="パス 5191" d="M1,38.851a1,1,0,0,1-1-1V4.781A4.787,4.787,0,0,1,4.78,0H33.126a1,1,0,0,1,1,1V35.017a1,1,0,0,1-2,0V2H4.78A2.783,2.783,0,0,0,2,4.781v33.07a1,1,0,0,1-1,1" fill="#151515"/>
      <path id="パス_5192" data-name="パス 5192" d="M36.9,41.685H3.835a3.835,3.835,0,0,1,0-7.669H33.126a1,1,0,1,1,0,2H3.835A1.836,1.836,0,0,0,2,37.848a1.835,1.835,0,0,0,1.832,1.837H35.9V4.78a1,1,0,1,1,2,0V40.685a1,1,0,0,1-1,1" fill="#151515"/>
    </g>
  </g>
</svg>
