<svg xmlns="http://www.w3.org/2000/svg" width="80" height="80" viewBox="0 0 80 80">
  <g id="グループ_2595" data-name="グループ 2595" transform="translate(-50)">
    <circle id="楕円形_6" data-name="楕円形 6" cx="40" cy="40" r="40" transform="translate(50)" fill="#f4f4f4"/>
    <g id="icon" transform="translate(69 22)">
      <path id="パス_5169" data-name="パス 5169" d="M20.843,38.411a1,1,0,0,1-.673-.26l-2.878-2.619C6.87,26.08,0,19.851,0,11.914A11.787,11.787,0,0,1,11.914,0a12.9,12.9,0,0,1,8.929,3.682A12.9,12.9,0,0,1,29.772,0,11.786,11.786,0,0,1,41.685,11.914c0,7.923-6.847,14.146-17.211,23.565l-2.96,2.674a1,1,0,0,1-.671.258" fill="#fff"/>
      <path id="パス_5314" data-name="パス 5314" d="M20.843,38.411a1,1,0,0,1-.673-.26l-2.878-2.619C6.87,26.08,0,19.851,0,11.914A11.787,11.787,0,0,1,11.914,0a12.9,12.9,0,0,1,8.929,3.682A12.9,12.9,0,0,1,29.772,0,11.786,11.786,0,0,1,41.685,11.914c0,7.923-6.847,14.146-17.211,23.565l-2.96,2.674a1,1,0,0,1-.671.258M11.914,2A9.808,9.808,0,0,0,2,11.914c0,7.05,6.608,13.043,16.61,22.113l2.236,2.034L23.128,34C33.1,24.938,39.685,18.952,39.685,11.914A9.807,9.807,0,0,0,29.772,2,10.872,10.872,0,0,0,21.6,5.8a1.031,1.031,0,0,1-1.522,0A10.872,10.872,0,0,0,11.914,2" fill="#151515"/>
    </g>
  </g>
</svg>
