<svg xmlns="http://www.w3.org/2000/svg" width="80" height="80" viewBox="0 0 80 80">
  <g id="グループ_2597" data-name="グループ 2597" transform="translate(-23)">
    <circle id="楕円形_6" data-name="楕円形 6" cx="40" cy="40" r="40" transform="translate(23)" fill="#f4f4f4"/>
    <g id="icon" transform="translate(48 20)">
      <path id="パス_5315" data-name="パス 5315" d="M28.73,28.212a3.975,3.975,0,0,1-3.975,3.975H5.9a3.975,3.975,0,0,1-3.979-3.971V8.123a3.825,3.825,0,0,1,.548-1.94,7.256,7.256,0,0,1,3.774-2.87,24.891,24.891,0,0,1,9.079-1.374c5.454,0,8.869,1,10.841,2.258A5.993,5.993,0,0,1,28.18,6.18a3.824,3.824,0,0,1,.548,1.94V28.212Z" fill="#fff"/>
      <g id="グループ_2533" data-name="グループ 2533">
        <path id="パス_5173" data-name="パス 5173" d="M29.8,5.238a9.1,9.1,0,0,0-4.7-3.669,26.715,26.715,0,0,0-9.78-1.5C9.652.066,5.9,1.087,3.481,2.617A7.851,7.851,0,0,0,.853,5.238a5.693,5.693,0,0,0-.8,2.885V28.212A5.85,5.85,0,0,0,5.9,34.063H7.616L3.573,39.736H6.8l.969-1.572h15.1l.97,1.572h3.232l-4.044-5.678h1.72a5.85,5.85,0,0,0,5.851-5.851V8.123a5.7,5.7,0,0,0-.8-2.885M8.711,36.648l.991-1.6H20.951l.992,1.6ZM28.73,28.212a3.975,3.975,0,0,1-3.975,3.975H5.9a3.975,3.975,0,0,1-3.979-3.971V8.123a3.825,3.825,0,0,1,.548-1.94,7.256,7.256,0,0,1,3.774-2.87,24.891,24.891,0,0,1,9.079-1.374c5.454,0,8.869,1,10.841,2.258A5.993,5.993,0,0,1,28.18,6.18a3.824,3.824,0,0,1,.548,1.94V28.212Z" fill="#151515"/>
        <path id="パス_5174" data-name="パス 5174" d="M27.175,39.786H23.819l-.014-.023-.957-1.549H7.8l-.971,1.572H3.477l.056-.079,3.986-5.594H5.9a5.907,5.907,0,0,1-5.9-5.9V8.123a5.739,5.739,0,0,1,.811-2.91A7.909,7.909,0,0,1,3.456,2.574C6.14.877,10.132.016,15.323.016a26.616,26.616,0,0,1,9.8,1.505,9.184,9.184,0,0,1,4.725,3.69v0a5.78,5.78,0,0,1,.812,2.91V28.207a5.909,5.909,0,0,1-5.9,5.9H23.132Zm-3.3-.1h3.106l-4.043-5.677h1.817a5.807,5.807,0,0,0,5.8-5.8V8.123a5.674,5.674,0,0,0-.8-2.858,9.09,9.09,0,0,0-4.673-3.649,26.511,26.511,0,0,0-9.764-1.5C10.152.116,6.177.972,3.507,2.66A7.833,7.833,0,0,0,.9,5.264a5.64,5.64,0,0,0-.8,2.86V28.212a5.81,5.81,0,0,0,5.8,5.8H7.713l-.056.078L3.67,39.686H6.777l.97-1.572H22.9l.014.024ZM22.033,36.7H8.621l1.053-1.7H20.979l.014.024ZM8.8,36.6H21.853l-.93-1.5H9.729ZM5.9,32.237a4.029,4.029,0,0,1-4.025-4.021V8.123a3.853,3.853,0,0,1,.554-1.965,7.336,7.336,0,0,1,3.8-2.892,24.753,24.753,0,0,1,9.1-1.377c6.047,0,9.248,1.232,10.866,2.266a6.048,6.048,0,0,1,2.031,2,3.877,3.877,0,0,1,.556,1.966V28.212a4.029,4.029,0,0,1-4.024,4.025H5.9ZM14.436,1.973A24.734,24.734,0,0,0,6.26,3.361a7.224,7.224,0,0,0-3.748,2.85,3.766,3.766,0,0,0-.54,1.913V28.212A3.93,3.93,0,0,0,5.9,32.137H24.755a3.93,3.93,0,0,0,3.925-3.875h0V8.12a3.776,3.776,0,0,0-.542-1.914,5.972,5.972,0,0,0-2-1.966c-1.61-1.027-4.791-2.251-10.816-2.251-.3-.011-.592-.016-.887-.016" fill="#151515"/>
        <path id="パス_5175" data-name="パス 5175" d="M10.127,7.931H20.521a1.252,1.252,0,1,0,.071-2.5H10.127a1.251,1.251,0,0,0,0,2.5" fill="#151515"/>
        <path id="パス_5176" data-name="パス 5176" d="M20.556,7.982H10.126a1.3,1.3,0,0,1,0-2.6H20.593a1.3,1.3,0,0,1-.037,2.6m-10.428-.1H20.555a1.2,1.2,0,0,0,.035-2.4H10.127a1.2,1.2,0,0,0,0,2.4" fill="#151515"/>
        <path id="パス_5177" data-name="パス 5177" d="M7.889,25.726a1.56,1.56,0,1,1-1.56,1.56,1.559,1.559,0,0,1,1.56-1.56" fill="#151515"/>
        <path id="パス_5178" data-name="パス 5178" d="M7.889,28.9a1.61,1.61,0,1,1,1.61-1.61,1.611,1.611,0,0,1-1.61,1.61m0-3.12a1.51,1.51,0,1,0,1.51,1.51,1.511,1.511,0,0,0-1.51-1.51" fill="#151515"/>
        <path id="パス_5179" data-name="パス 5179" d="M22.763,25.726a1.56,1.56,0,1,1-1.56,1.56,1.559,1.559,0,0,1,1.56-1.56" fill="#151515"/>
        <path id="パス_5180" data-name="パス 5180" d="M22.763,28.9a1.61,1.61,0,1,1,1.61-1.61,1.612,1.612,0,0,1-1.61,1.61m0-3.12a1.51,1.51,0,1,0,1.51,1.51,1.511,1.511,0,0,0-1.51-1.51" fill="#151515"/>
        <rect id="長方形_1680" data-name="長方形 1680" width="8.329" height="7.618" transform="translate(5.719 11.972)" fill="#151515"/>
        <path id="パス_5181" data-name="パス 5181" d="M14.1,19.64H5.67V11.923H14.1Zm-8.329-.1H14V12.022H5.769Z" fill="#151515"/>
        <rect id="長方形_1681" data-name="長方形 1681" width="8.7" height="7.618" transform="translate(16.232 11.972)" fill="#151515"/>
        <path id="パス_5182" data-name="パス 5182" d="M24.981,19.64h-8.8V11.923h8.8Zm-8.7-.1h8.6V12.022h-8.6Z" fill="#151515"/>
      </g>
    </g>
  </g>
</svg>
