<svg id="グループ_2603" data-name="グループ 2603" xmlns="http://www.w3.org/2000/svg" width="80" height="80" viewBox="0 0 80 80">
  <circle id="楕円形_6" data-name="楕円形 6" cx="40" cy="40" r="40" fill="#f4f4f4"/>
  <g id="icon" transform="translate(20 24)">
    <path id="パス_5317" data-name="パス 5317" d="M38.37,4.441,26.669.15H13.317L13.181.2,1.711,4.406l-.1.035a2.233,2.233,0,0,0-1.4,2.613L1.416,12.14A2.236,2.236,0,0,0,3.59,13.859h.132l3.74-.222v14.5a2.9,2.9,0,0,0,2.9,2.9H29.626a2.9,2.9,0,0,0,2.9-2.9V13.632l3.752.222H36.4a2.236,2.236,0,0,0,2.175-1.719l1.2-5.087A2.249,2.249,0,0,0,38.37,4.441" fill="#fff"/>
    <path id="パス_5189" data-name="パス 5189" d="M38.37,4.441,26.669.15H13.317L13.181.2,1.711,4.406l-.1.035a2.233,2.233,0,0,0-1.4,2.613L1.416,12.14A2.236,2.236,0,0,0,3.59,13.859h.132l3.74-.222v14.5a2.9,2.9,0,0,0,2.9,2.9H29.626a2.9,2.9,0,0,0,2.9-2.9V13.632l3.752.222H36.4a2.236,2.236,0,0,0,2.175-1.719l1.2-5.087A2.249,2.249,0,0,0,38.37,4.441m-12.9-2.667a5.372,5.372,0,0,1-.623,1.29,4.7,4.7,0,0,1-1.681,1.55,6.529,6.529,0,0,1-3.175.713,6.506,6.506,0,0,1-3.209-.732,4.858,4.858,0,0,1-2.131-2.436c-.055-.133-.1-.26-.142-.382Zm12.722,4.9-1.2,5.086a.611.611,0,0,1-.6.469h-.013L30.9,11.908V28.14a1.282,1.282,0,0,1-1.279,1.28H10.369a1.281,1.281,0,0,1-1.278-1.28V11.908l-5.386.32H3.6a.612.612,0,0,1-.6-.47L1.792,6.679l-.017-.141a.608.608,0,0,1,.4-.571L2.072,6,13.4,1.848A6.62,6.62,0,0,0,14.191,3.6a5.791,5.791,0,0,0,2.068,1.939,7.555,7.555,0,0,0,3.734.869,7.571,7.571,0,0,0,3.735-.868,5.943,5.943,0,0,0,2.6-2.967,6.9,6.9,0,0,0,.253-.724L37.811,5.966a.606.606,0,0,1,.383.713" fill="#151515"/>
    <path id="パス_5190" data-name="パス 5190" d="M29.626,31.194H10.37A3.058,3.058,0,0,1,7.312,28.14V13.8l-3.722.213a2.377,2.377,0,0,1-2.319-1.835L.066,7.089A2.383,2.383,0,0,1,1.561,4.3l.1-.036L13.266.009A.154.154,0,0,1,13.318,0H26.669a.154.154,0,0,1,.052.009L38.421,4.3a2.393,2.393,0,0,1,1.565,2.237,2.432,2.432,0,0,1-.06.544l-1.2,5.088A2.376,2.376,0,0,1,36.4,14h-.119l-3.6-.213V28.14a3.057,3.057,0,0,1-3.054,3.054M7.462,13.487a.15.15,0,0,1,.151.149v14.5a2.756,2.756,0,0,0,2.753,2.754h19.26a2.756,2.756,0,0,0,2.753-2.754V13.632a.153.153,0,0,1,.048-.11.174.174,0,0,1,.111-.04L36.4,13.7a2.08,2.08,0,0,0,2.029-1.6l1.2-5.087a2.153,2.153,0,0,0,.051-.475,2.094,2.094,0,0,0-1.367-1.957L26.643.3h-13.3L1.662,4.582a2.084,2.084,0,0,0-1.3,2.437L1.562,12.1a2.079,2.079,0,0,0,2.028,1.6h.133l3.73-.222ZM29.621,29.57H10.37a1.435,1.435,0,0,1-1.429-1.43V12.068l-5.308.31h0a.769.769,0,0,1-.776-.586L1.626,6.556a.77.77,0,0,1,.324-.64.135.135,0,0,1,.071-.055L13.352,1.708a.144.144,0,0,1,.12.007.148.148,0,0,1,.076.092,6.438,6.438,0,0,0,.77,1.71,5.643,5.643,0,0,0,2.013,1.889,7.5,7.5,0,0,0,3.659.851,7.415,7.415,0,0,0,3.669-.851,5.813,5.813,0,0,0,2.535-2.89,6.724,6.724,0,0,0,.248-.709.148.148,0,0,1,.076-.092.152.152,0,0,1,.12-.007L37.863,5.825a.756.756,0,0,1,.477.889l-1.2,5.085a.755.755,0,0,1-.738.585h-.041a.138.138,0,0,1-.03,0l-5.276-.313V28.14a1.435,1.435,0,0,1-1.43,1.43M9.091,11.759a.15.15,0,0,1,.151.149V28.14a1.133,1.133,0,0,0,1.128,1.13H29.621a1.132,1.132,0,0,0,1.129-1.13V11.908A.151.151,0,0,1,30.8,11.8a.169.169,0,0,1,.112-.04l5.486.325h0a.459.459,0,0,0,.447-.354l1.2-5.086a.457.457,0,0,0-.289-.537L26.684,2.044c-.061.2-.132.391-.212.585A6.121,6.121,0,0,1,23.8,5.67a7.678,7.678,0,0,1-3.812.887,7.707,7.707,0,0,1-3.8-.886,5.947,5.947,0,0,1-2.123-1.992,6.741,6.741,0,0,1-.761-1.635L2.245,6.1a.1.1,0,0,1-.021.009.462.462,0,0,0-.3.431l.016.122,1.2,5.063a.46.46,0,0,0,.449.355H3.7l5.377-.319ZM19.783,5.48a6.66,6.66,0,0,1-3.068-.753,5.022,5.022,0,0,1-2.2-2.512c-.056-.134-.1-.264-.144-.389a.153.153,0,0,1,.02-.136.15.15,0,0,1,.122-.063l10.961,0a.149.149,0,0,1,.121.062.154.154,0,0,1,.022.135,5.591,5.591,0,0,1-.641,1.325,4.882,4.882,0,0,1-1.734,1.6,6.551,6.551,0,0,1-3.252.731l-.206,0M14.724,1.927c.021.057.043.115.068.174a4.719,4.719,0,0,0,2.066,2.363,6.39,6.39,0,0,0,3.131.713,6.371,6.371,0,0,0,3.111-.7,4.564,4.564,0,0,0,1.625-1.5,5.252,5.252,0,0,0,.536-1.057Z" fill="#151515"/>
  </g>
</svg>
