<svg xmlns="http://www.w3.org/2000/svg" width="80" height="80" viewBox="0 0 80 80">
  <g id="グループ_2598" data-name="グループ 2598" transform="translate(-14)">
    <circle id="楕円形_6" data-name="楕円形 6" cx="40" cy="40" r="40" transform="translate(14)" fill="#f4f4f4"/>
    <g id="icon" transform="translate(33 20)">
      <path id="パス_5316" data-name="パス 5316" d="M25.536,38.925h8.841V20.717a1,1,0,0,1,1-1h2.879l-3.583-3.552a1,1,0,0,1-.3-.71V4.631H32.221v6.69a1,1,0,0,1-1.7.708L20.843,2.41,3.426,19.711H6.3a1,1,0,0,1,1,1V38.925H16.15V25.444a1,1,0,0,1,1-1h7.386a1,1,0,0,1,1,1Z" fill="#fff"/>
      <path id="パス_5183" data-name="パス 5183" d="M35.377,40.925H24.536a1,1,0,0,1-1-1V26.444H18.15V39.925a1,1,0,0,1-1,1H6.3a1,1,0,0,1-1-1V21.711H1A1,1,0,0,1,.295,20L20.139.29a1,1,0,0,1,1.409,0l8.673,8.625V3.631a1,1,0,0,1,1-1h4.156a1,1,0,0,1,1,1V15.038l5.012,4.969a1,1,0,0,1-.7,1.71H36.377V39.925a1,1,0,0,1-1,1m-9.841-2h8.841V20.717a1,1,0,0,1,1-1h2.879l-3.583-3.552a1,1,0,0,1-.3-.71V4.631H32.221v6.69a1,1,0,0,1-1.7.708L20.843,2.41,3.426,19.711H6.3a1,1,0,0,1,1,1V38.925H16.15V25.444a1,1,0,0,1,1-1h7.386a1,1,0,0,1,1,1Z" fill="#151515"/>
    </g>
  </g>
</svg>
