<svg xmlns="http://www.w3.org/2000/svg" width="80" height="80" viewBox="0 0 80 80">
  <g id="グループ_2604" data-name="グループ 2604" transform="translate(-6)">
    <circle id="楕円形_6" data-name="楕円形 6" cx="40" cy="40" r="40" transform="translate(6)" fill="#f4f4f4"/>
    <g id="icon" transform="translate(26 19)">
      <path id="パス_5390" data-name="パス 5390" d="M4.326,8.409a8.128,8.128,0,0,0-2.933,2.549c-.784,1.441-1.525,6.2-1.525,6.2V40.147s.525,1.939,1.891,1.781,1.678-1.781,1.678-1.781V27.821s.584-1.57,1.57-1.57,2.081,1.926,2.081,1.926v11.97s.345,2.166,1.781,1.781A2.492,2.492,0,0,0,10.6,40.147V23.07l3.8.909,2.007-.909V21.578l-5.42-2.271-.757-1.3.37-7.049H7.087Z" fill="#fff"/>
      <path id="パス_5391" data-name="パス 5391" d="M27.74,12.189v6.172l-2.366,1.956-3.148,1.391-.713,1.574,1.813.6,4.415-1.306-1.672,9.913h13.94V19.582s-.283-4.548-1.361-6.2-3.718-4.785-3.718-4.785L32.644,7.3,31.4,10.446l-1.854.938Z" fill="#fff"/>
      <path id="パス_5377" data-name="パス 5377" d="M36.685,13.566c0,2.878-.2,4.856-4.343,4.856S28,16.444,28,13.566,29.944,8,32.343,8,36.685,10.688,36.685,13.566Z" transform="translate(-22.789 -7.131)" fill="#fff" stroke="#000" stroke-linecap="round" stroke-linejoin="round" stroke-width="2"/>
      <path id="パス_5378" data-name="パス 5378" d="M120.685,13.566c0,2.878-.2,4.856-4.343,4.856S112,16.444,112,13.566,113.944,8,116.343,8,120.685,10.688,120.685,13.566Z" transform="translate(-88.549 -7.131)" fill="#fff" stroke="#000" stroke-linecap="round" stroke-linejoin="round" stroke-width="2"/>
      <path id="パス_5379" data-name="パス 5379" d="M23.474,68a12.367,12.367,0,0,0,3.39,4.673A16.6,16.6,0,0,0,32.2,75.6a1.224,1.224,0,0,1-.671,2.351,22.176,22.176,0,0,1-3.361-1.061A16.028,16.028,0,0,1,20,69.737a16.028,16.028,0,0,0,8.165,7.157,22.176,22.176,0,0,0,3.361,1.061A1.224,1.224,0,0,0,32.2,75.6a16.6,16.6,0,0,1-5.334-2.931A12.367,12.367,0,0,1,23.474,68Z" transform="translate(-16.526 -54.103)" fill="#fff" stroke="#000" stroke-linecap="round" stroke-linejoin="round" stroke-width="2"/>
      <path id="パス_5380" data-name="パス 5380" d="M6.606,48A9.49,9.49,0,0,0,4,54.948V78.4a1.737,1.737,0,1,0,3.474,0V67.108a1.737,1.737,0,1,1,3.474,0V78.4a1.737,1.737,0,1,0,3.474,0v0a1.737,1.737,0,1,1-3.474,0V67.108a1.737,1.737,0,1,0-3.474,0V78.4A1.737,1.737,0,1,1,4,78.4V54.948A9.49,9.49,0,0,1,6.606,48Z" transform="translate(-4 -38.446)" fill="none" stroke="#000" stroke-linecap="round" stroke-linejoin="round" stroke-width="2"/>
      <path id="パス_5381" data-name="パス 5381" d="M132,152v7.817a1.737,1.737,0,1,0,3.474,0V152Z" transform="translate(-104.207 -119.864)" fill="#fff" stroke="#000" stroke-linecap="round" stroke-linejoin="round" stroke-width="2"/>
      <path id="パス_5382" data-name="パス 5382" d="M164,152v7.817a1.737,1.737,0,0,0,3.474,0V152Z" transform="translate(-129.258 -119.864)" fill="#fff" stroke="#000" stroke-linecap="round" stroke-linejoin="round" stroke-width="2"/>
      <path id="パス_5383" data-name="パス 5383" d="M71.474,131.805V115.737a1.737,1.737,0,0,0-3.474,0,1.737,1.737,0,0,1,3.474,0Z" transform="translate(-54.103 -90.115)" fill="#fff" stroke="#000" stroke-linecap="round" stroke-linejoin="round" stroke-width="2"/>
      <path id="パス_5384" data-name="パス 5384" d="M113.554,68a12.367,12.367,0,0,1-3.39,4.673,16.6,16.6,0,0,1-5.334,2.931,1.224,1.224,0,0,0,.671,2.351,22.176,22.176,0,0,0,3.361-1.061,16.029,16.029,0,0,0,8.165-7.157,16.029,16.029,0,0,1-8.165,7.157,22.176,22.176,0,0,1-3.361,1.061,1.224,1.224,0,0,1-.671-2.351,16.6,16.6,0,0,0,5.334-2.931A12.367,12.367,0,0,0,113.554,68Z" transform="translate(-82.287 -54.103)" fill="#fff" stroke="#000" stroke-linecap="round" stroke-linejoin="round" stroke-width="2"/>
      <path id="パス_5385" data-name="パス 5385" d="M100,131.805V115.737a1.737,1.737,0,0,1,3.474,0,1.737,1.737,0,0,0-3.474,0Z" transform="translate(-79.155 -90.115)" fill="#fff" stroke="#000" stroke-linecap="round" stroke-linejoin="round" stroke-width="2"/>
      <path id="パス_5386" data-name="パス 5386" d="M52,56v0Z" transform="translate(-41.577 -44.709)" fill="#fff" stroke="#000" stroke-linecap="round" stroke-linejoin="round" stroke-width="2"/>
      <path id="パス_5387" data-name="パス 5387" d="M133.554,48c4.343,5.211,4.343,6.948,4.343,22.582H124c.469-2.4.865-4.723,1.172-6.948-.307,2.225-.7,4.547-1.172,6.948h13.9C137.9,54.948,137.9,53.211,133.554,48Z" transform="translate(-97.944 -38.446)" fill="#fff" stroke="#000" stroke-linecap="round" stroke-linejoin="round" stroke-width="2"/>
      <path id="パス_5388" data-name="パス 5388" d="M131.757,56.5h0a43.964,43.964,0,0,1,.143,7.171A43.964,43.964,0,0,0,131.757,56.5Z" transform="translate(-104.016 -45.1)" fill="#fff" stroke="#000" stroke-linecap="round" stroke-linejoin="round" stroke-width="2"/>
      <path id="パス_5389" data-name="パス 5389" d="M142.636,4a2.17,2.17,0,0,0-2.043,1.44,5.524,5.524,0,0,1,2.131,2.9A2.17,2.17,0,0,0,142.636,4Z" transform="translate(-110.934 -4)" fill="#fff" stroke="#000" stroke-linecap="round" stroke-linejoin="round" stroke-width="2"/>
    </g>
  </g>
</svg>
