<svg xmlns="http://www.w3.org/2000/svg" width="80" height="80" viewBox="0 0 80 80">
  <g id="グループ_2600" data-name="グループ 2600" transform="translate(-38)">
    <circle id="楕円形_6" data-name="楕円形 6" cx="40" cy="40" r="40" transform="translate(38)" fill="#f4f4f4"/>
    <g id="白黒" transform="translate(54.001 20.001)">
      <path id="パス_5392" data-name="パス 5392" d="M3.4,16.725A9.446,9.446,0,0,1,4.919,8.7c1.54-2.319,6.332-5.691,9.439-6.294C22.409.84,26.269,4.84,26.269,4.84s.093-2.5,1.93-3.169A19.581,19.581,0,0,0,30.282.826c.521-.211,5,.845,5,.845L38.61,4.84,39.1,9.131l-2.256,4.214L33.254,15.1l-3.6-.693-2.229-1.06-1.155-2.228Z" fill="#fff"/>
      <path id="パス_5262" data-name="パス 5262" d="M47.523,40.282a51.47,51.47,0,0,0-8.189-2.262l-3.651-5.169c-.012-.018-.031-.027-.045-.042a.69.69,0,0,0-.107-.1.746.746,0,0,0-.111-.075.692.692,0,0,0-.127-.048.654.654,0,0,0-.145-.029.579.579,0,0,0-.06-.012H21.935L17.573,14.088l8.1-1.914a7.83,7.83,0,1,0-.026-8.65A16.06,16.06,0,0,0,13.979,2.049,16.331,16.331,0,0,0,4.812,7.717a10.76,10.76,0,0,0-2.267,9.178.725.725,0,0,0,.706.559.746.746,0,0,0,.168-.019l12.738-3.012,4.283,18.12H15.157L7.634,24.179a.727.727,0,1,0-1.082.972l7.353,8.174-3.041,4.306A54.354,54.354,0,0,0,.471,40.282a.727.727,0,0,0,.512,1.362c12.69-4.784,33.338-4.784,46.027,0a.736.736,0,0,0,.256.046.727.727,0,0,0,.257-1.408M11.594,7.043c.518-2.016,1.483-3.287,2.719-3.58a2.4,2.4,0,0,1,.562-.064,4.965,4.965,0,0,1,3.473,2.047,16.067,16.067,0,0,1,3.125,6.225l-4.94,1.169h0l-4.94,1.169a16.072,16.072,0,0,1,.005-6.966M32.168,1.454a6.388,6.388,0,0,1,0,12.776,6.305,6.305,0,0,1-4.952-2.421l3.1-.733a.726.726,0,0,0,.54-.874,10.283,10.283,0,0,0-3.99-5.887,6.371,6.371,0,0,1,5.307-2.862M29.237,9.837l-6.355,1.5a17.584,17.584,0,0,0-3.437-6.846,9.321,9.321,0,0,0-1.593-1.465c.067,0,.134,0,.2,0,5.259,0,9.806,2.654,11.185,6.813M5.959,8.612a14.055,14.055,0,0,1,4.994-3.95,9.356,9.356,0,0,0-.768,2.022,17.586,17.586,0,0,0-.006,7.659l-6.356,1.5A9.5,9.5,0,0,1,5.959,8.612M15.21,34h5.575l.628,2.659a83.61,83.61,0,0,0-8.561.68Zm7.69,2.628L22.279,34H34.712L37.3,37.657a83.782,83.782,0,0,0-14.4-1.033" transform="translate(-0.001 -0.001)" fill="#1a171b" stroke="#1a171b" stroke-width="0.5"/>
    </g>
  </g>
</svg>
