<svg xmlns="http://www.w3.org/2000/svg" width="80" height="80" viewBox="0 0 80 80">
  <g id="グループ_2596" data-name="グループ 2596" transform="translate(-23)">
    <circle id="楕円形_6" data-name="楕円形 6" cx="40" cy="40" r="40" transform="translate(23)" fill="#f4f4f4"/>
    <g id="icon" transform="translate(44 20)">
      <circle id="楕円形_88" data-name="楕円形 88" cx="18.5" cy="18.5" r="18.5" transform="translate(2 1)" fill="#fff"/>
      <path id="パス_5170" data-name="パス 5170" d="M19.842,0A19.843,19.843,0,1,0,39.685,19.843,19.972,19.972,0,0,0,19.842,0M37.5,21.453a17.72,17.72,0,0,1-4.007,9.758l-.356.432-2.224-2.224-1.5,1.494,2.231,2.232-.421.357a17.515,17.515,0,0,1-9.774,4.1l-.555.051V34.441H18.785v3.212l-.556-.051a17.521,17.521,0,0,1-9.773-4.1l-.422-.357,2.235-2.232-1.5-1.5L6.549,31.642l-.357-.432a17.735,17.735,0,0,1-4.007-9.757L2.136,20.9H5.244V18.785H2.137l.05-.554A17.579,17.579,0,0,1,6.223,8.5l.357-.426,2.192,2.191,1.5-1.5-2.19-2.19.427-.357a17.576,17.576,0,0,1,9.728-4.037l.555-.05V5.245H20.9V2.138l.555.05a17.579,17.579,0,0,1,9.729,4.037l.427.357L29.421,8.773l1.492,1.494L33.1,8.077l.357.426A17.579,17.579,0,0,1,37.5,18.232l.05.554H34.44V20.9h3.107Z" fill="#151515"/>
      <path id="パス_5171" data-name="パス 5171" d="M14.688,13.194l-1.49,1.49,6.65,6.649,5.081-5.08-1.495-1.5-3.591,3.591Z" fill="#151515"/>
      <path id="パス_5172" data-name="パス 5172" d="M24.928,16.253l-5.081,5.08L13.2,14.684l1.489-1.49,5.155,5.155,3.591-3.591Z" fill="#151515"/>
    </g>
  </g>
</svg>
